<svg xmlns="http://www.w3.org/2000/svg" width="720" height="700" viewBox="0 0 720 700">
<rect x="0.00" y="0.00" width="720.00" height="700.00" fill="#ffffff" stroke="none" stroke-width="1.00" rx="0.00" />
<rect x="36.00" y="28.00" width="648.00" height="592.00" fill="#ffffff" stroke="#dddddd" stroke-width="1.00" rx="14.00" />
<text x="360.00" y="54.00" font-size="17" fill="#222222" font-family="Times New Roman, Times, serif" text-anchor="middle" font-weight="bold">Manual score vs answer length</text>
<line x1="114.00" y1="478.44" x2="654.00" y2="478.44" stroke="#d9d9d9" stroke-width="1.00" />
<text x="104.00" y="482.44" font-size="10" fill="#444444" font-family="Times New Roman, Times, serif" text-anchor="end" font-weight="normal">0 = wrong / hallucinated</text>
<line x1="114.00" y1="314.00" x2="654.00" y2="314.00" stroke="#d9d9d9" stroke-width="1.00" />
<text x="104.00" y="318.00" font-size="10" fill="#444444" font-family="Times New Roman, Times, serif" text-anchor="end" font-weight="normal">1 = mixed / noisy</text>
<line x1="114.00" y1="149.56" x2="654.00" y2="149.56" stroke="#d9d9d9" stroke-width="1.00" />
<text x="104.00" y="153.56" font-size="10" fill="#444444" font-family="Times New Roman, Times, serif" text-anchor="end" font-weight="normal">2 = broadly correct</text>
<line x1="132.62" y1="92.00" x2="132.62" y2="536.00" stroke="#d9d9d9" stroke-width="1.00" />
<text x="132.62" y="560.00" font-size="10" fill="#444444" font-family="Times New Roman, Times, serif" text-anchor="middle" font-weight="normal">10</text>
<line x1="225.72" y1="92.00" x2="225.72" y2="536.00" stroke="#d9d9d9" stroke-width="1.00" />
<text x="225.72" y="560.00" font-size="10" fill="#444444" font-family="Times New Roman, Times, serif" text-anchor="middle" font-weight="normal">20</text>
<line x1="318.83" y1="92.00" x2="318.83" y2="536.00" stroke="#d9d9d9" stroke-width="1.00" />
<text x="318.83" y="560.00" font-size="10" fill="#444444" font-family="Times New Roman, Times, serif" text-anchor="middle" font-weight="normal">30</text>
<line x1="411.93" y1="92.00" x2="411.93" y2="536.00" stroke="#d9d9d9" stroke-width="1.00" />
<text x="411.93" y="560.00" font-size="10" fill="#444444" font-family="Times New Roman, Times, serif" text-anchor="middle" font-weight="normal">40</text>
<line x1="505.03" y1="92.00" x2="505.03" y2="536.00" stroke="#d9d9d9" stroke-width="1.00" />
<text x="505.03" y="560.00" font-size="10" fill="#444444" font-family="Times New Roman, Times, serif" text-anchor="middle" font-weight="normal">50</text>
<line x1="598.14" y1="92.00" x2="598.14" y2="536.00" stroke="#d9d9d9" stroke-width="1.00" />
<text x="598.14" y="560.00" font-size="10" fill="#444444" font-family="Times New Roman, Times, serif" text-anchor="middle" font-weight="normal">60</text>
<line x1="114.00" y1="92.00" x2="114.00" y2="536.00" stroke="#222222" stroke-width="1.10" />
<line x1="114.00" y1="536.00" x2="654.00" y2="536.00" stroke="#222222" stroke-width="1.10" />
<text x="384.00" y="578.00" font-size="11" fill="#444444" font-family="Times New Roman, Times, serif" text-anchor="middle" font-weight="normal">Generated answer length (tokens)</text>
<circle cx="356.07" cy="351.00" r="4.20" fill="#c8553d" stroke="#ffffff" stroke-width="0.80" opacity="0.820" />
<circle cx="365.38" cy="164.85" r="4.20" fill="#2a9d8f" stroke="#ffffff" stroke-width="0.80" opacity="0.820" />
<circle cx="328.14" cy="307.59" r="4.20" fill="#457b9d" stroke="#ffffff" stroke-width="0.80" opacity="0.820" />
<circle cx="495.72" cy="309.40" r="4.20" fill="#b08968" stroke="#ffffff" stroke-width="0.80" opacity="0.820" />
<circle cx="439.86" cy="287.69" r="4.20" fill="#6d597a" stroke="#ffffff" stroke-width="0.80" opacity="0.820" />
<circle cx="560.90" cy="496.20" r="4.20" fill="#c8553d" stroke="#ffffff" stroke-width="0.80" opacity="0.820" />
<circle cx="262.97" cy="498.01" r="4.20" fill="#2a9d8f" stroke="#ffffff" stroke-width="0.80" opacity="0.820" />
<circle cx="477.10" cy="476.31" r="4.20" fill="#457b9d" stroke="#ffffff" stroke-width="0.80" opacity="0.820" />
<circle cx="253.66" cy="454.60" r="4.20" fill="#b08968" stroke="#ffffff" stroke-width="0.80" opacity="0.820" />
<circle cx="393.31" cy="456.41" r="4.20" fill="#6d597a" stroke="#ffffff" stroke-width="0.80" opacity="0.820" />
<circle cx="262.97" cy="336.04" r="4.20" fill="#c8553d" stroke="#ffffff" stroke-width="0.80" opacity="0.820" />
<circle cx="188.48" cy="502.29" r="4.20" fill="#2a9d8f" stroke="#ffffff" stroke-width="0.80" opacity="0.820" />
<circle cx="216.41" cy="480.58" r="4.20" fill="#457b9d" stroke="#ffffff" stroke-width="0.80" opacity="0.820" />
<circle cx="160.55" cy="294.43" r="4.20" fill="#b08968" stroke="#ffffff" stroke-width="0.80" opacity="0.820" />
<circle cx="179.17" cy="296.24" r="4.20" fill="#6d597a" stroke="#ffffff" stroke-width="0.80" opacity="0.820" />
<circle cx="421.24" cy="340.31" r="4.20" fill="#c8553d" stroke="#ffffff" stroke-width="0.80" opacity="0.820" />
<circle cx="356.07" cy="318.60" r="4.20" fill="#2a9d8f" stroke="#ffffff" stroke-width="0.80" opacity="0.820" />
<circle cx="449.17" cy="320.41" r="4.20" fill="#457b9d" stroke="#ffffff" stroke-width="0.80" opacity="0.820" />
<circle cx="486.41" cy="298.71" r="4.20" fill="#b08968" stroke="#ffffff" stroke-width="0.80" opacity="0.820" />
<circle cx="439.86" cy="441.44" r="4.20" fill="#6d597a" stroke="#ffffff" stroke-width="0.80" opacity="0.820" />
<circle cx="486.41" cy="180.14" r="4.20" fill="#c8553d" stroke="#ffffff" stroke-width="0.80" opacity="0.820" />
<circle cx="430.55" cy="322.88" r="4.20" fill="#2a9d8f" stroke="#ffffff" stroke-width="0.80" opacity="0.820" />
<circle cx="272.28" cy="324.69" r="4.20" fill="#457b9d" stroke="#ffffff" stroke-width="0.80" opacity="0.820" />
<circle cx="318.83" cy="467.43" r="4.20" fill="#b08968" stroke="#ffffff" stroke-width="0.80" opacity="0.820" />
<circle cx="430.55" cy="445.72" r="4.20" fill="#6d597a" stroke="#ffffff" stroke-width="0.80" opacity="0.820" />
<circle cx="421.24" cy="513.31" r="4.20" fill="#c8553d" stroke="#ffffff" stroke-width="0.80" opacity="0.820" />
<circle cx="411.93" cy="491.60" r="4.20" fill="#2a9d8f" stroke="#ffffff" stroke-width="0.80" opacity="0.820" />
<circle cx="262.97" cy="469.89" r="4.20" fill="#457b9d" stroke="#ffffff" stroke-width="0.80" opacity="0.820" />
<circle cx="318.83" cy="471.70" r="4.20" fill="#b08968" stroke="#ffffff" stroke-width="0.80" opacity="0.820" />
<circle cx="235.03" cy="450.00" r="4.20" fill="#6d597a" stroke="#ffffff" stroke-width="0.80" opacity="0.820" />
<circle cx="542.28" cy="494.07" r="4.20" fill="#c8553d" stroke="#ffffff" stroke-width="0.80" opacity="0.820" />
<circle cx="439.86" cy="166.99" r="4.20" fill="#2a9d8f" stroke="#ffffff" stroke-width="0.80" opacity="0.820" />
<circle cx="402.62" cy="474.17" r="4.20" fill="#457b9d" stroke="#ffffff" stroke-width="0.80" opacity="0.820" />
<circle cx="318.83" cy="311.53" r="4.20" fill="#b08968" stroke="#ffffff" stroke-width="0.80" opacity="0.820" />
<circle cx="421.24" cy="289.83" r="4.20" fill="#6d597a" stroke="#ffffff" stroke-width="0.80" opacity="0.820" />
<circle cx="365.38" cy="498.34" r="4.20" fill="#c8553d" stroke="#ffffff" stroke-width="0.80" opacity="0.820" />
<circle cx="309.52" cy="500.15" r="4.20" fill="#2a9d8f" stroke="#ffffff" stroke-width="0.80" opacity="0.820" />
<circle cx="290.90" cy="478.44" r="4.20" fill="#457b9d" stroke="#ffffff" stroke-width="0.80" opacity="0.820" />
<circle cx="290.90" cy="456.74" r="4.20" fill="#b08968" stroke="#ffffff" stroke-width="0.80" opacity="0.820" />
<circle cx="384.00" cy="458.55" r="4.20" fill="#6d597a" stroke="#ffffff" stroke-width="0.80" opacity="0.820" />
<circle cx="411.93" cy="502.62" r="4.20" fill="#c8553d" stroke="#ffffff" stroke-width="0.80" opacity="0.820" />
<circle cx="318.83" cy="480.91" r="4.20" fill="#2a9d8f" stroke="#ffffff" stroke-width="0.80" opacity="0.820" />
<circle cx="439.86" cy="482.72" r="4.20" fill="#457b9d" stroke="#ffffff" stroke-width="0.80" opacity="0.820" />
<circle cx="560.90" cy="461.01" r="4.20" fill="#b08968" stroke="#ffffff" stroke-width="0.80" opacity="0.820" />
<circle cx="486.41" cy="462.82" r="4.20" fill="#6d597a" stroke="#ffffff" stroke-width="0.80" opacity="0.820" />
<circle cx="439.86" cy="342.45" r="4.20" fill="#c8553d" stroke="#ffffff" stroke-width="0.80" opacity="0.820" />
<circle cx="346.76" cy="320.74" r="4.20" fill="#2a9d8f" stroke="#ffffff" stroke-width="0.80" opacity="0.820" />
<circle cx="402.62" cy="322.55" r="4.20" fill="#457b9d" stroke="#ffffff" stroke-width="0.80" opacity="0.820" />
<circle cx="384.00" cy="465.29" r="4.20" fill="#b08968" stroke="#ffffff" stroke-width="0.80" opacity="0.820" />
<circle cx="346.76" cy="443.58" r="4.20" fill="#6d597a" stroke="#ffffff" stroke-width="0.80" opacity="0.820" />
<circle cx="309.52" cy="182.28" r="4.20" fill="#c8553d" stroke="#ffffff" stroke-width="0.80" opacity="0.820" />
<circle cx="384.00" cy="325.02" r="4.20" fill="#2a9d8f" stroke="#ffffff" stroke-width="0.80" opacity="0.820" />
<circle cx="300.21" cy="303.31" r="4.20" fill="#457b9d" stroke="#ffffff" stroke-width="0.80" opacity="0.820" />
<circle cx="356.07" cy="305.12" r="4.20" fill="#b08968" stroke="#ffffff" stroke-width="0.80" opacity="0.820" />
<circle cx="216.41" cy="118.97" r="4.20" fill="#6d597a" stroke="#ffffff" stroke-width="0.80" opacity="0.820" />
<circle cx="579.52" cy="351.00" r="4.20" fill="#c8553d" stroke="#ffffff" stroke-width="0.80" opacity="0.820" />
<circle cx="393.31" cy="329.29" r="4.20" fill="#2a9d8f" stroke="#ffffff" stroke-width="0.80" opacity="0.820" />
<circle cx="300.21" cy="472.03" r="4.20" fill="#457b9d" stroke="#ffffff" stroke-width="0.80" opacity="0.820" />
<circle cx="365.38" cy="473.84" r="4.20" fill="#b08968" stroke="#ffffff" stroke-width="0.80" opacity="0.820" />
<circle cx="430.55" cy="452.13" r="4.20" fill="#6d597a" stroke="#ffffff" stroke-width="0.80" opacity="0.820" />
<circle cx="430.55" cy="496.20" r="4.20" fill="#c8553d" stroke="#ffffff" stroke-width="0.80" opacity="0.820" />
<circle cx="225.72" cy="333.57" r="4.20" fill="#2a9d8f" stroke="#ffffff" stroke-width="0.80" opacity="0.820" />
<circle cx="635.38" cy="476.31" r="4.20" fill="#457b9d" stroke="#ffffff" stroke-width="0.80" opacity="0.820" />
<circle cx="272.28" cy="454.60" r="4.20" fill="#b08968" stroke="#ffffff" stroke-width="0.80" opacity="0.820" />
<circle cx="393.31" cy="456.41" r="4.20" fill="#6d597a" stroke="#ffffff" stroke-width="0.80" opacity="0.820" />
<circle cx="384.00" cy="171.59" r="4.20" fill="#c8553d" stroke="#ffffff" stroke-width="0.80" opacity="0.820" />
<circle cx="346.76" cy="173.40" r="4.20" fill="#2a9d8f" stroke="#ffffff" stroke-width="0.80" opacity="0.820" />
<circle cx="365.38" cy="316.14" r="4.20" fill="#457b9d" stroke="#ffffff" stroke-width="0.80" opacity="0.820" />
<circle cx="272.28" cy="458.88" r="4.20" fill="#b08968" stroke="#ffffff" stroke-width="0.80" opacity="0.820" />
<circle cx="374.69" cy="460.68" r="4.20" fill="#6d597a" stroke="#ffffff" stroke-width="0.80" opacity="0.820" />
<circle cx="356.07" cy="504.76" r="4.20" fill="#c8553d" stroke="#ffffff" stroke-width="0.80" opacity="0.820" />
<circle cx="309.52" cy="483.05" r="4.20" fill="#2a9d8f" stroke="#ffffff" stroke-width="0.80" opacity="0.820" />
<circle cx="365.38" cy="484.86" r="4.20" fill="#457b9d" stroke="#ffffff" stroke-width="0.80" opacity="0.820" />
<circle cx="486.41" cy="463.15" r="4.20" fill="#b08968" stroke="#ffffff" stroke-width="0.80" opacity="0.820" />
<circle cx="402.62" cy="441.44" r="4.20" fill="#6d597a" stroke="#ffffff" stroke-width="0.80" opacity="0.820" />
<circle cx="346.76" cy="344.59" r="4.20" fill="#c8553d" stroke="#ffffff" stroke-width="0.80" opacity="0.820" />
<circle cx="365.38" cy="487.32" r="4.20" fill="#2a9d8f" stroke="#ffffff" stroke-width="0.80" opacity="0.820" />
<circle cx="411.93" cy="489.13" r="4.20" fill="#457b9d" stroke="#ffffff" stroke-width="0.80" opacity="0.820" />
<circle cx="458.48" cy="467.43" r="4.20" fill="#b08968" stroke="#ffffff" stroke-width="0.80" opacity="0.820" />
<circle cx="365.38" cy="445.72" r="4.20" fill="#6d597a" stroke="#ffffff" stroke-width="0.80" opacity="0.820" />
<circle cx="262.97" cy="348.86" r="4.20" fill="#c8553d" stroke="#ffffff" stroke-width="0.80" opacity="0.820" />
<circle cx="262.97" cy="327.16" r="4.20" fill="#2a9d8f" stroke="#ffffff" stroke-width="0.80" opacity="0.820" />
<circle cx="300.21" cy="305.45" r="4.20" fill="#457b9d" stroke="#ffffff" stroke-width="0.80" opacity="0.820" />
<circle cx="188.48" cy="142.81" r="4.20" fill="#b08968" stroke="#ffffff" stroke-width="0.80" opacity="0.820" />
<circle cx="207.10" cy="121.11" r="4.20" fill="#6d597a" stroke="#ffffff" stroke-width="0.80" opacity="0.820" />
<circle cx="300.21" cy="329.62" r="4.20" fill="#c8553d" stroke="#ffffff" stroke-width="0.80" opacity="0.820" />
<circle cx="216.41" cy="331.43" r="4.20" fill="#2a9d8f" stroke="#ffffff" stroke-width="0.80" opacity="0.820" />
<circle cx="393.31" cy="474.17" r="4.20" fill="#457b9d" stroke="#ffffff" stroke-width="0.80" opacity="0.820" />
<circle cx="337.45" cy="475.98" r="4.20" fill="#b08968" stroke="#ffffff" stroke-width="0.80" opacity="0.820" />
<circle cx="393.31" cy="125.38" r="4.20" fill="#6d597a" stroke="#ffffff" stroke-width="0.80" opacity="0.820" />
<circle cx="356.07" cy="498.34" r="4.20" fill="#c8553d" stroke="#ffffff" stroke-width="0.80" opacity="0.820" />
<circle cx="300.21" cy="500.15" r="4.20" fill="#2a9d8f" stroke="#ffffff" stroke-width="0.80" opacity="0.820" />
<circle cx="328.14" cy="478.44" r="4.20" fill="#457b9d" stroke="#ffffff" stroke-width="0.80" opacity="0.820" />
<circle cx="290.90" cy="456.74" r="4.20" fill="#b08968" stroke="#ffffff" stroke-width="0.80" opacity="0.820" />
<circle cx="290.90" cy="458.55" r="4.20" fill="#6d597a" stroke="#ffffff" stroke-width="0.80" opacity="0.820" />
<circle cx="262.97" cy="338.17" r="4.20" fill="#c8553d" stroke="#ffffff" stroke-width="0.80" opacity="0.820" />
<circle cx="290.90" cy="316.47" r="4.20" fill="#2a9d8f" stroke="#ffffff" stroke-width="0.80" opacity="0.820" />
<circle cx="179.17" cy="318.28" r="4.20" fill="#457b9d" stroke="#ffffff" stroke-width="0.80" opacity="0.820" />
<circle cx="281.59" cy="296.57" r="4.20" fill="#b08968" stroke="#ffffff" stroke-width="0.80" opacity="0.820" />
<circle cx="356.07" cy="298.38" r="4.20" fill="#6d597a" stroke="#ffffff" stroke-width="0.80" opacity="0.820" />
<circle cx="449.17" cy="506.89" r="4.20" fill="#c8553d" stroke="#ffffff" stroke-width="0.80" opacity="0.820" />
<circle cx="337.45" cy="485.19" r="4.20" fill="#2a9d8f" stroke="#ffffff" stroke-width="0.80" opacity="0.820" />
<circle cx="411.93" cy="322.55" r="4.20" fill="#457b9d" stroke="#ffffff" stroke-width="0.80" opacity="0.820" />
<circle cx="458.48" cy="465.29" r="4.20" fill="#b08968" stroke="#ffffff" stroke-width="0.80" opacity="0.820" />
<circle cx="411.93" cy="443.58" r="4.20" fill="#6d597a" stroke="#ffffff" stroke-width="0.80" opacity="0.820" />
<circle cx="421.24" cy="511.17" r="4.20" fill="#c8553d" stroke="#ffffff" stroke-width="0.80" opacity="0.820" />
<circle cx="216.41" cy="489.46" r="4.20" fill="#2a9d8f" stroke="#ffffff" stroke-width="0.80" opacity="0.820" />
<circle cx="281.59" cy="467.76" r="4.20" fill="#457b9d" stroke="#ffffff" stroke-width="0.80" opacity="0.820" />
<circle cx="262.97" cy="469.56" r="4.20" fill="#b08968" stroke="#ffffff" stroke-width="0.80" opacity="0.820" />
<circle cx="197.79" cy="447.86" r="4.20" fill="#6d597a" stroke="#ffffff" stroke-width="0.80" opacity="0.820" />
<circle cx="346.76" cy="351.00" r="4.20" fill="#c8553d" stroke="#ffffff" stroke-width="0.80" opacity="0.820" />
<circle cx="486.41" cy="329.29" r="4.20" fill="#2a9d8f" stroke="#ffffff" stroke-width="0.80" opacity="0.820" />
<circle cx="365.38" cy="472.03" r="4.20" fill="#457b9d" stroke="#ffffff" stroke-width="0.80" opacity="0.820" />
<circle cx="290.90" cy="144.95" r="4.20" fill="#b08968" stroke="#ffffff" stroke-width="0.80" opacity="0.820" />
<circle cx="356.07" cy="287.69" r="4.20" fill="#6d597a" stroke="#ffffff" stroke-width="0.80" opacity="0.820" />
<circle cx="458.48" cy="167.32" r="4.20" fill="#c8553d" stroke="#ffffff" stroke-width="0.80" opacity="0.820" />
<circle cx="374.69" cy="333.57" r="4.20" fill="#2a9d8f" stroke="#ffffff" stroke-width="0.80" opacity="0.820" />
<circle cx="374.69" cy="147.42" r="4.20" fill="#457b9d" stroke="#ffffff" stroke-width="0.80" opacity="0.820" />
<circle cx="411.93" cy="290.16" r="4.20" fill="#b08968" stroke="#ffffff" stroke-width="0.80" opacity="0.820" />
<circle cx="523.66" cy="291.96" r="4.20" fill="#6d597a" stroke="#ffffff" stroke-width="0.80" opacity="0.820" />
<circle cx="346.76" cy="500.48" r="4.20" fill="#c8553d" stroke="#ffffff" stroke-width="0.80" opacity="0.820" />
<circle cx="402.62" cy="502.29" r="4.20" fill="#2a9d8f" stroke="#ffffff" stroke-width="0.80" opacity="0.820" />
<circle cx="365.38" cy="480.58" r="4.20" fill="#457b9d" stroke="#ffffff" stroke-width="0.80" opacity="0.820" />
<circle cx="169.86" cy="458.88" r="4.20" fill="#b08968" stroke="#ffffff" stroke-width="0.80" opacity="0.820" />
<circle cx="477.10" cy="460.68" r="4.20" fill="#6d597a" stroke="#ffffff" stroke-width="0.80" opacity="0.820" />
<circle cx="374.69" cy="340.31" r="4.20" fill="#c8553d" stroke="#ffffff" stroke-width="0.80" opacity="0.820" />
<circle cx="458.48" cy="483.05" r="4.20" fill="#2a9d8f" stroke="#ffffff" stroke-width="0.80" opacity="0.820" />
<circle cx="290.90" cy="320.41" r="4.20" fill="#457b9d" stroke="#ffffff" stroke-width="0.80" opacity="0.820" />
<circle cx="607.45" cy="298.71" r="4.20" fill="#b08968" stroke="#ffffff" stroke-width="0.80" opacity="0.820" />
<circle cx="290.90" cy="112.56" r="4.20" fill="#6d597a" stroke="#ffffff" stroke-width="0.80" opacity="0.820" />
<circle cx="300.21" cy="509.03" r="4.20" fill="#c8553d" stroke="#ffffff" stroke-width="0.80" opacity="0.820" />
<circle cx="290.90" cy="487.32" r="4.20" fill="#2a9d8f" stroke="#ffffff" stroke-width="0.80" opacity="0.820" />
<circle cx="532.97" cy="489.13" r="4.20" fill="#457b9d" stroke="#ffffff" stroke-width="0.80" opacity="0.820" />
<circle cx="262.97" cy="467.43" r="4.20" fill="#b08968" stroke="#ffffff" stroke-width="0.80" opacity="0.820" />
<circle cx="477.10" cy="281.28" r="4.20" fill="#6d597a" stroke="#ffffff" stroke-width="0.80" opacity="0.820" />
<circle cx="542.28" cy="513.31" r="4.20" fill="#c8553d" stroke="#ffffff" stroke-width="0.80" opacity="0.820" />
<circle cx="607.45" cy="491.60" r="4.20" fill="#2a9d8f" stroke="#ffffff" stroke-width="0.80" opacity="0.820" />
<circle cx="346.76" cy="469.89" r="4.20" fill="#457b9d" stroke="#ffffff" stroke-width="0.80" opacity="0.820" />
<circle cx="579.52" cy="471.70" r="4.20" fill="#b08968" stroke="#ffffff" stroke-width="0.80" opacity="0.820" />
<circle cx="337.45" cy="450.00" r="4.20" fill="#6d597a" stroke="#ffffff" stroke-width="0.80" opacity="0.820" />
<circle cx="328.14" cy="329.62" r="4.20" fill="#c8553d" stroke="#ffffff" stroke-width="0.80" opacity="0.820" />
<circle cx="421.24" cy="495.88" r="4.20" fill="#2a9d8f" stroke="#ffffff" stroke-width="0.80" opacity="0.820" />
<circle cx="570.21" cy="474.17" r="4.20" fill="#457b9d" stroke="#ffffff" stroke-width="0.80" opacity="0.820" />
<circle cx="486.41" cy="475.98" r="4.20" fill="#b08968" stroke="#ffffff" stroke-width="0.80" opacity="0.820" />
<circle cx="402.62" cy="454.27" r="4.20" fill="#6d597a" stroke="#ffffff" stroke-width="0.80" opacity="0.820" />
<circle cx="318.83" cy="498.34" r="4.20" fill="#c8553d" stroke="#ffffff" stroke-width="0.80" opacity="0.820" />
<circle cx="393.31" cy="500.15" r="4.20" fill="#2a9d8f" stroke="#ffffff" stroke-width="0.80" opacity="0.820" />
<circle cx="281.59" cy="478.44" r="4.20" fill="#457b9d" stroke="#ffffff" stroke-width="0.80" opacity="0.820" />
<circle cx="458.48" cy="456.74" r="4.20" fill="#b08968" stroke="#ffffff" stroke-width="0.80" opacity="0.820" />
<circle cx="235.03" cy="458.55" r="4.20" fill="#6d597a" stroke="#ffffff" stroke-width="0.80" opacity="0.820" />
<circle cx="505.03" cy="502.62" r="4.20" fill="#c8553d" stroke="#ffffff" stroke-width="0.80" opacity="0.820" />
<circle cx="607.45" cy="480.91" r="4.20" fill="#2a9d8f" stroke="#ffffff" stroke-width="0.80" opacity="0.820" />
<circle cx="365.38" cy="482.72" r="4.20" fill="#457b9d" stroke="#ffffff" stroke-width="0.80" opacity="0.820" />
<circle cx="374.69" cy="461.01" r="4.20" fill="#b08968" stroke="#ffffff" stroke-width="0.80" opacity="0.820" />
<circle cx="411.93" cy="462.82" r="4.20" fill="#6d597a" stroke="#ffffff" stroke-width="0.80" opacity="0.820" />
<circle cx="272.28" cy="178.00" r="4.20" fill="#c8553d" stroke="#ffffff" stroke-width="0.80" opacity="0.820" />
<circle cx="197.79" cy="320.74" r="4.20" fill="#2a9d8f" stroke="#ffffff" stroke-width="0.80" opacity="0.820" />
<circle cx="262.97" cy="322.55" r="4.20" fill="#457b9d" stroke="#ffffff" stroke-width="0.80" opacity="0.820" />
<circle cx="300.21" cy="300.84" r="4.20" fill="#b08968" stroke="#ffffff" stroke-width="0.80" opacity="0.820" />
<circle cx="309.52" cy="114.69" r="4.20" fill="#6d597a" stroke="#ffffff" stroke-width="0.80" opacity="0.820" />
<circle cx="207.10" cy="511.17" r="4.20" fill="#c8553d" stroke="#ffffff" stroke-width="0.80" opacity="0.820" />
<circle cx="281.59" cy="489.46" r="4.20" fill="#2a9d8f" stroke="#ffffff" stroke-width="0.80" opacity="0.820" />
<circle cx="197.79" cy="303.31" r="4.20" fill="#457b9d" stroke="#ffffff" stroke-width="0.80" opacity="0.820" />
<circle cx="235.03" cy="469.56" r="4.20" fill="#b08968" stroke="#ffffff" stroke-width="0.80" opacity="0.820" />
<circle cx="318.83" cy="447.86" r="4.20" fill="#6d597a" stroke="#ffffff" stroke-width="0.80" opacity="0.820" />
<circle cx="318.83" cy="515.44" r="4.20" fill="#c8553d" stroke="#ffffff" stroke-width="0.80" opacity="0.820" />
<circle cx="188.48" cy="493.74" r="4.20" fill="#2a9d8f" stroke="#ffffff" stroke-width="0.80" opacity="0.820" />
<circle cx="374.69" cy="472.03" r="4.20" fill="#457b9d" stroke="#ffffff" stroke-width="0.80" opacity="0.820" />
<circle cx="365.38" cy="473.84" r="4.20" fill="#b08968" stroke="#ffffff" stroke-width="0.80" opacity="0.820" />
<circle cx="588.83" cy="452.13" r="4.20" fill="#6d597a" stroke="#ffffff" stroke-width="0.80" opacity="0.820" />
<circle cx="337.45" cy="496.20" r="4.20" fill="#c8553d" stroke="#ffffff" stroke-width="0.80" opacity="0.820" />
<circle cx="616.76" cy="498.01" r="4.20" fill="#2a9d8f" stroke="#ffffff" stroke-width="0.80" opacity="0.820" />
<circle cx="616.76" cy="476.31" r="4.20" fill="#457b9d" stroke="#ffffff" stroke-width="0.80" opacity="0.820" />
<circle cx="318.83" cy="454.60" r="4.20" fill="#b08968" stroke="#ffffff" stroke-width="0.80" opacity="0.820" />
<circle cx="235.03" cy="456.41" r="4.20" fill="#6d597a" stroke="#ffffff" stroke-width="0.80" opacity="0.820" />
<circle cx="430.55" cy="336.04" r="4.20" fill="#c8553d" stroke="#ffffff" stroke-width="0.80" opacity="0.820" />
<circle cx="393.31" cy="173.40" r="4.20" fill="#2a9d8f" stroke="#ffffff" stroke-width="0.80" opacity="0.820" />
<circle cx="365.38" cy="480.58" r="4.20" fill="#457b9d" stroke="#ffffff" stroke-width="0.80" opacity="0.820" />
<circle cx="337.45" cy="294.43" r="4.20" fill="#b08968" stroke="#ffffff" stroke-width="0.80" opacity="0.820" />
<circle cx="570.21" cy="296.24" r="4.20" fill="#6d597a" stroke="#ffffff" stroke-width="0.80" opacity="0.820" />
<circle cx="411.93" cy="504.76" r="4.20" fill="#c8553d" stroke="#ffffff" stroke-width="0.80" opacity="0.820" />
<circle cx="225.72" cy="483.05" r="4.20" fill="#2a9d8f" stroke="#ffffff" stroke-width="0.80" opacity="0.820" />
<circle cx="421.24" cy="484.86" r="4.20" fill="#457b9d" stroke="#ffffff" stroke-width="0.80" opacity="0.820" />
<circle cx="151.24" cy="463.15" r="4.20" fill="#b08968" stroke="#ffffff" stroke-width="0.80" opacity="0.820" />
<circle cx="337.45" cy="441.44" r="4.20" fill="#6d597a" stroke="#ffffff" stroke-width="0.80" opacity="0.820" />
<circle cx="402.62" cy="509.03" r="4.20" fill="#c8553d" stroke="#ffffff" stroke-width="0.80" opacity="0.820" />
<circle cx="551.59" cy="322.88" r="4.20" fill="#2a9d8f" stroke="#ffffff" stroke-width="0.80" opacity="0.820" />
<circle cx="356.07" cy="489.13" r="4.20" fill="#457b9d" stroke="#ffffff" stroke-width="0.80" opacity="0.820" />
<circle cx="439.86" cy="302.98" r="4.20" fill="#b08968" stroke="#ffffff" stroke-width="0.80" opacity="0.820" />
<circle cx="467.79" cy="281.28" r="4.20" fill="#6d597a" stroke="#ffffff" stroke-width="0.80" opacity="0.820" />
<circle cx="598.14" cy="513.31" r="4.20" fill="#c8553d" stroke="#ffffff" stroke-width="0.80" opacity="0.820" />
<circle cx="495.72" cy="491.60" r="4.20" fill="#2a9d8f" stroke="#ffffff" stroke-width="0.80" opacity="0.820" />
<circle cx="253.66" cy="469.89" r="4.20" fill="#457b9d" stroke="#ffffff" stroke-width="0.80" opacity="0.820" />
<circle cx="356.07" cy="142.81" r="4.20" fill="#b08968" stroke="#ffffff" stroke-width="0.80" opacity="0.820" />
<circle cx="337.45" cy="285.55" r="4.20" fill="#6d597a" stroke="#ffffff" stroke-width="0.80" opacity="0.820" />
<circle cx="132.62" cy="165.18" r="4.20" fill="#c8553d" stroke="#ffffff" stroke-width="0.80" opacity="0.820" />
<circle cx="225.72" cy="331.43" r="4.20" fill="#2a9d8f" stroke="#ffffff" stroke-width="0.80" opacity="0.820" />
<circle cx="207.10" cy="309.72" r="4.20" fill="#457b9d" stroke="#ffffff" stroke-width="0.80" opacity="0.820" />
<circle cx="356.07" cy="311.53" r="4.20" fill="#b08968" stroke="#ffffff" stroke-width="0.80" opacity="0.820" />
<circle cx="123.31" cy="125.38" r="4.20" fill="#6d597a" stroke="#ffffff" stroke-width="0.80" opacity="0.820" />
<circle cx="216.41" cy="498.34" r="4.20" fill="#c8553d" stroke="#ffffff" stroke-width="0.80" opacity="0.820" />
<circle cx="318.83" cy="500.15" r="4.20" fill="#2a9d8f" stroke="#ffffff" stroke-width="0.80" opacity="0.820" />
<circle cx="262.97" cy="478.44" r="4.20" fill="#457b9d" stroke="#ffffff" stroke-width="0.80" opacity="0.820" />
<circle cx="290.90" cy="456.74" r="4.20" fill="#b08968" stroke="#ffffff" stroke-width="0.80" opacity="0.820" />
<circle cx="225.72" cy="458.55" r="4.20" fill="#6d597a" stroke="#ffffff" stroke-width="0.80" opacity="0.820" />
<circle cx="262.97" cy="173.73" r="4.20" fill="#c8553d" stroke="#ffffff" stroke-width="0.80" opacity="0.820" />
<circle cx="207.10" cy="316.47" r="4.20" fill="#2a9d8f" stroke="#ffffff" stroke-width="0.80" opacity="0.820" />
<circle cx="281.59" cy="482.72" r="4.20" fill="#457b9d" stroke="#ffffff" stroke-width="0.80" opacity="0.820" />
<circle cx="123.31" cy="296.57" r="4.20" fill="#b08968" stroke="#ffffff" stroke-width="0.80" opacity="0.820" />
<circle cx="244.34" cy="133.93" r="4.20" fill="#6d597a" stroke="#ffffff" stroke-width="0.80" opacity="0.820" />
<circle cx="439.86" cy="506.89" r="4.20" fill="#c8553d" stroke="#ffffff" stroke-width="0.80" opacity="0.820" />
<circle cx="523.66" cy="485.19" r="4.20" fill="#2a9d8f" stroke="#ffffff" stroke-width="0.80" opacity="0.820" />
<circle cx="477.10" cy="487.00" r="4.20" fill="#457b9d" stroke="#ffffff" stroke-width="0.80" opacity="0.820" />
<circle cx="281.59" cy="465.29" r="4.20" fill="#b08968" stroke="#ffffff" stroke-width="0.80" opacity="0.820" />
<circle cx="309.52" cy="443.58" r="4.20" fill="#6d597a" stroke="#ffffff" stroke-width="0.80" opacity="0.820" />
<circle cx="290.90" cy="346.72" r="4.20" fill="#c8553d" stroke="#ffffff" stroke-width="0.80" opacity="0.820" />
<circle cx="272.28" cy="325.02" r="4.20" fill="#2a9d8f" stroke="#ffffff" stroke-width="0.80" opacity="0.820" />
<circle cx="356.07" cy="138.87" r="4.20" fill="#457b9d" stroke="#ffffff" stroke-width="0.80" opacity="0.820" />
<circle cx="290.90" cy="305.12" r="4.20" fill="#b08968" stroke="#ffffff" stroke-width="0.80" opacity="0.820" />
<circle cx="300.21" cy="118.97" r="4.20" fill="#6d597a" stroke="#ffffff" stroke-width="0.80" opacity="0.820" />
<circle cx="551.59" cy="351.00" r="4.20" fill="#c8553d" stroke="#ffffff" stroke-width="0.80" opacity="0.820" />
<circle cx="365.38" cy="493.74" r="4.20" fill="#2a9d8f" stroke="#ffffff" stroke-width="0.80" opacity="0.820" />
<circle cx="365.38" cy="472.03" r="4.20" fill="#457b9d" stroke="#ffffff" stroke-width="0.80" opacity="0.820" />
<circle cx="309.52" cy="473.84" r="4.20" fill="#b08968" stroke="#ffffff" stroke-width="0.80" opacity="0.820" />
<circle cx="309.52" cy="287.69" r="4.20" fill="#6d597a" stroke="#ffffff" stroke-width="0.80" opacity="0.820" />
<circle cx="458.48" cy="496.20" r="4.20" fill="#c8553d" stroke="#ffffff" stroke-width="0.80" opacity="0.820" />
<circle cx="309.52" cy="498.01" r="4.20" fill="#2a9d8f" stroke="#ffffff" stroke-width="0.80" opacity="0.820" />
<circle cx="477.10" cy="476.31" r="4.20" fill="#457b9d" stroke="#ffffff" stroke-width="0.80" opacity="0.820" />
<circle cx="300.21" cy="454.60" r="4.20" fill="#b08968" stroke="#ffffff" stroke-width="0.80" opacity="0.820" />
<circle cx="374.69" cy="456.41" r="4.20" fill="#6d597a" stroke="#ffffff" stroke-width="0.80" opacity="0.820" />
<circle cx="365.38" cy="500.48" r="4.20" fill="#c8553d" stroke="#ffffff" stroke-width="0.80" opacity="0.820" />
<circle cx="337.45" cy="502.29" r="4.20" fill="#2a9d8f" stroke="#ffffff" stroke-width="0.80" opacity="0.820" />
<circle cx="318.83" cy="480.58" r="4.20" fill="#457b9d" stroke="#ffffff" stroke-width="0.80" opacity="0.820" />
<circle cx="328.14" cy="458.88" r="4.20" fill="#b08968" stroke="#ffffff" stroke-width="0.80" opacity="0.820" />
<circle cx="309.52" cy="460.68" r="4.20" fill="#6d597a" stroke="#ffffff" stroke-width="0.80" opacity="0.820" />
<circle cx="272.28" cy="175.87" r="4.20" fill="#c8553d" stroke="#ffffff" stroke-width="0.80" opacity="0.820" />
<circle cx="272.28" cy="154.16" r="4.20" fill="#2a9d8f" stroke="#ffffff" stroke-width="0.80" opacity="0.820" />
<circle cx="244.34" cy="155.97" r="4.20" fill="#457b9d" stroke="#ffffff" stroke-width="0.80" opacity="0.820" />
<circle cx="244.34" cy="134.26" r="4.20" fill="#b08968" stroke="#ffffff" stroke-width="0.80" opacity="0.820" />
<circle cx="309.52" cy="277.00" r="4.20" fill="#6d597a" stroke="#ffffff" stroke-width="0.80" opacity="0.820" />
<circle cx="290.90" cy="509.03" r="4.20" fill="#c8553d" stroke="#ffffff" stroke-width="0.80" opacity="0.820" />
<circle cx="570.21" cy="487.32" r="4.20" fill="#2a9d8f" stroke="#ffffff" stroke-width="0.80" opacity="0.820" />
<circle cx="281.59" cy="489.13" r="4.20" fill="#457b9d" stroke="#ffffff" stroke-width="0.80" opacity="0.820" />
<circle cx="374.69" cy="467.43" r="4.20" fill="#b08968" stroke="#ffffff" stroke-width="0.80" opacity="0.820" />
<circle cx="588.83" cy="445.72" r="4.20" fill="#6d597a" stroke="#ffffff" stroke-width="0.80" opacity="0.820" />
<circle cx="290.90" cy="513.31" r="4.20" fill="#c8553d" stroke="#ffffff" stroke-width="0.80" opacity="0.820" />
<circle cx="402.62" cy="491.60" r="4.20" fill="#2a9d8f" stroke="#ffffff" stroke-width="0.80" opacity="0.820" />
<circle cx="374.69" cy="469.89" r="4.20" fill="#457b9d" stroke="#ffffff" stroke-width="0.80" opacity="0.820" />
<circle cx="309.52" cy="471.70" r="4.20" fill="#b08968" stroke="#ffffff" stroke-width="0.80" opacity="0.820" />
<circle cx="300.21" cy="450.00" r="4.20" fill="#6d597a" stroke="#ffffff" stroke-width="0.80" opacity="0.820" />
<polygon points="370.59,469.94 379.09,478.44 370.59,486.94 362.09,478.44" fill="#111111" stroke="#ffffff" stroke-width="1.20" />
<text x="382.59" y="470.44" font-size="10" fill="#444444" font-family="Times New Roman, Times, serif" text-anchor="start" font-weight="normal">mean 35.6</text>
<polygon points="349.42,305.50 357.92,314.00 349.42,322.50 340.92,314.00" fill="#111111" stroke="#ffffff" stroke-width="1.20" />
<text x="361.42" y="306.00" font-size="10" fill="#444444" font-family="Times New Roman, Times, serif" text-anchor="start" font-weight="normal">mean 33.3</text>
<polygon points="304.86,141.06 313.36,149.56 304.86,158.06 296.36,149.56" fill="#111111" stroke="#ffffff" stroke-width="1.20" />
<text x="316.86" y="141.56" font-size="10" fill="#444444" font-family="Times New Roman, Times, serif" text-anchor="start" font-weight="normal">mean 28.5</text>
<circle cx="100.00" cy="664.00" r="5.50" fill="#c8553d" stroke="none" stroke-width="1.00" opacity="1.000" />
<text x="112.00" y="668.00" font-size="11" fill="#444444" font-family="Times New Roman, Times, serif" text-anchor="start" font-weight="normal">update1</text>
<circle cx="210.00" cy="664.00" r="5.50" fill="#2a9d8f" stroke="none" stroke-width="1.00" opacity="1.000" />
<text x="222.00" y="668.00" font-size="11" fill="#444444" font-family="Times New Roman, Times, serif" text-anchor="start" font-weight="normal">update2</text>
<circle cx="320.00" cy="664.00" r="5.50" fill="#457b9d" stroke="none" stroke-width="1.00" opacity="1.000" />
<text x="332.00" y="668.00" font-size="11" fill="#444444" font-family="Times New Roman, Times, serif" text-anchor="start" font-weight="normal">update4</text>
<circle cx="430.00" cy="664.00" r="5.50" fill="#b08968" stroke="none" stroke-width="1.00" opacity="1.000" />
<text x="442.00" y="668.00" font-size="11" fill="#444444" font-family="Times New Roman, Times, serif" text-anchor="start" font-weight="normal">update8</text>
<circle cx="540.00" cy="664.00" r="5.50" fill="#6d597a" stroke="none" stroke-width="1.00" opacity="1.000" />
<text x="552.00" y="668.00" font-size="11" fill="#444444" font-family="Times New Roman, Times, serif" text-anchor="start" font-weight="normal">frozen</text>
</svg>