<svg xmlns="http://www.w3.org/2000/svg" width="720" height="700" viewBox="0 0 720 700">
<rect x="0.00" y="0.00" width="720.00" height="700.00" fill="#ffffff" stroke="none" stroke-width="1.00" rx="0.00" />
<rect x="36.00" y="28.00" width="648.00" height="592.00" fill="#ffffff" stroke="#dddddd" stroke-width="1.00" rx="14.00" />
<text x="360.00" y="54.00" font-size="17" fill="#222222" font-family="Times New Roman, Times, serif" text-anchor="middle" font-weight="bold">Manual score vs switch rate</text>
<line x1="114.00" y1="478.44" x2="654.00" y2="478.44" stroke="#d9d9d9" stroke-width="1.00" />
<text x="104.00" y="482.44" font-size="10" fill="#444444" font-family="Times New Roman, Times, serif" text-anchor="end" font-weight="normal">0 = wrong / hallucinated</text>
<line x1="114.00" y1="314.00" x2="654.00" y2="314.00" stroke="#d9d9d9" stroke-width="1.00" />
<text x="104.00" y="318.00" font-size="10" fill="#444444" font-family="Times New Roman, Times, serif" text-anchor="end" font-weight="normal">1 = mixed / noisy</text>
<line x1="114.00" y1="149.56" x2="654.00" y2="149.56" stroke="#d9d9d9" stroke-width="1.00" />
<text x="104.00" y="153.56" font-size="10" fill="#444444" font-family="Times New Roman, Times, serif" text-anchor="end" font-weight="normal">2 = broadly correct</text>
<line x1="124.80" y1="92.00" x2="124.80" y2="536.00" stroke="#d9d9d9" stroke-width="1.00" />
<text x="124.80" y="560.00" font-size="10" fill="#444444" font-family="Times New Roman, Times, serif" text-anchor="middle" font-weight="normal">0</text>
<line x1="232.80" y1="92.00" x2="232.80" y2="536.00" stroke="#d9d9d9" stroke-width="1.00" />
<text x="232.80" y="560.00" font-size="10" fill="#444444" font-family="Times New Roman, Times, serif" text-anchor="middle" font-weight="normal">0.20</text>
<line x1="340.80" y1="92.00" x2="340.80" y2="536.00" stroke="#d9d9d9" stroke-width="1.00" />
<text x="340.80" y="560.00" font-size="10" fill="#444444" font-family="Times New Roman, Times, serif" text-anchor="middle" font-weight="normal">0.40</text>
<line x1="448.80" y1="92.00" x2="448.80" y2="536.00" stroke="#d9d9d9" stroke-width="1.00" />
<text x="448.80" y="560.00" font-size="10" fill="#444444" font-family="Times New Roman, Times, serif" text-anchor="middle" font-weight="normal">0.60</text>
<line x1="556.80" y1="92.00" x2="556.80" y2="536.00" stroke="#d9d9d9" stroke-width="1.00" />
<text x="556.80" y="560.00" font-size="10" fill="#444444" font-family="Times New Roman, Times, serif" text-anchor="middle" font-weight="normal">0.80</text>
<line x1="114.00" y1="92.00" x2="114.00" y2="536.00" stroke="#222222" stroke-width="1.10" />
<line x1="114.00" y1="536.00" x2="654.00" y2="536.00" stroke="#222222" stroke-width="1.10" />
<text x="384.00" y="578.00" font-size="11" fill="#444444" font-family="Times New Roman, Times, serif" text-anchor="middle" font-weight="normal">Layer switch rate</text>
<circle cx="501.94" cy="351.00" r="4.20" fill="#c8553d" stroke="#ffffff" stroke-width="0.80" opacity="0.820" />
<circle cx="336.10" cy="164.85" r="4.20" fill="#2a9d8f" stroke="#ffffff" stroke-width="0.80" opacity="0.820" />
<circle cx="212.71" cy="307.59" r="4.20" fill="#457b9d" stroke="#ffffff" stroke-width="0.80" opacity="0.820" />
<circle cx="176.23" cy="309.40" r="4.20" fill="#b08968" stroke="#ffffff" stroke-width="0.80" opacity="0.820" />
<circle cx="124.80" cy="287.69" r="4.20" fill="#6d597a" stroke="#ffffff" stroke-width="0.80" opacity="0.820" />
<circle cx="236.23" cy="496.20" r="4.20" fill="#c8553d" stroke="#ffffff" stroke-width="0.80" opacity="0.820" />
<circle cx="261.94" cy="498.01" r="4.20" fill="#2a9d8f" stroke="#ffffff" stroke-width="0.80" opacity="0.820" />
<circle cx="210.51" cy="476.31" r="4.20" fill="#457b9d" stroke="#ffffff" stroke-width="0.80" opacity="0.820" />
<circle cx="167.66" cy="454.60" r="4.20" fill="#b08968" stroke="#ffffff" stroke-width="0.80" opacity="0.820" />
<circle cx="124.80" cy="456.41" r="4.20" fill="#6d597a" stroke="#ffffff" stroke-width="0.80" opacity="0.820" />
<circle cx="538.80" cy="336.04" r="4.20" fill="#c8553d" stroke="#ffffff" stroke-width="0.80" opacity="0.820" />
<circle cx="324.37" cy="502.29" r="4.20" fill="#2a9d8f" stroke="#ffffff" stroke-width="0.80" opacity="0.820" />
<circle cx="232.80" cy="480.58" r="4.20" fill="#457b9d" stroke="#ffffff" stroke-width="0.80" opacity="0.820" />
<circle cx="192.30" cy="294.43" r="4.20" fill="#b08968" stroke="#ffffff" stroke-width="0.80" opacity="0.820" />
<circle cx="124.80" cy="296.24" r="4.20" fill="#6d597a" stroke="#ffffff" stroke-width="0.80" opacity="0.820" />
<circle cx="441.94" cy="340.31" r="4.20" fill="#c8553d" stroke="#ffffff" stroke-width="0.80" opacity="0.820" />
<circle cx="330.51" cy="318.60" r="4.20" fill="#2a9d8f" stroke="#ffffff" stroke-width="0.80" opacity="0.820" />
<circle cx="227.66" cy="320.41" r="4.20" fill="#457b9d" stroke="#ffffff" stroke-width="0.80" opacity="0.820" />
<circle cx="167.66" cy="298.71" r="4.20" fill="#b08968" stroke="#ffffff" stroke-width="0.80" opacity="0.820" />
<circle cx="124.80" cy="441.44" r="4.20" fill="#6d597a" stroke="#ffffff" stroke-width="0.80" opacity="0.820" />
<circle cx="503.75" cy="180.14" r="4.20" fill="#c8553d" stroke="#ffffff" stroke-width="0.80" opacity="0.820" />
<circle cx="321.94" cy="322.88" r="4.20" fill="#2a9d8f" stroke="#ffffff" stroke-width="0.80" opacity="0.820" />
<circle cx="227.66" cy="324.69" r="4.20" fill="#457b9d" stroke="#ffffff" stroke-width="0.80" opacity="0.820" />
<circle cx="168.58" cy="467.43" r="4.20" fill="#b08968" stroke="#ffffff" stroke-width="0.80" opacity="0.820" />
<circle cx="124.80" cy="445.72" r="4.20" fill="#6d597a" stroke="#ffffff" stroke-width="0.80" opacity="0.820" />
<circle cx="532.17" cy="513.31" r="4.20" fill="#c8553d" stroke="#ffffff" stroke-width="0.80" opacity="0.820" />
<circle cx="255.14" cy="491.60" r="4.20" fill="#2a9d8f" stroke="#ffffff" stroke-width="0.80" opacity="0.820" />
<circle cx="193.37" cy="469.89" r="4.20" fill="#457b9d" stroke="#ffffff" stroke-width="0.80" opacity="0.820" />
<circle cx="153.22" cy="471.70" r="4.20" fill="#b08968" stroke="#ffffff" stroke-width="0.80" opacity="0.820" />
<circle cx="124.80" cy="450.00" r="4.20" fill="#6d597a" stroke="#ffffff" stroke-width="0.80" opacity="0.820" />
<circle cx="493.37" cy="494.07" r="4.20" fill="#c8553d" stroke="#ffffff" stroke-width="0.80" opacity="0.820" />
<circle cx="304.80" cy="166.99" r="4.20" fill="#2a9d8f" stroke="#ffffff" stroke-width="0.80" opacity="0.820" />
<circle cx="224.80" cy="474.17" r="4.20" fill="#457b9d" stroke="#ffffff" stroke-width="0.80" opacity="0.820" />
<circle cx="189.09" cy="311.53" r="4.20" fill="#b08968" stroke="#ffffff" stroke-width="0.80" opacity="0.820" />
<circle cx="124.80" cy="289.83" r="4.20" fill="#6d597a" stroke="#ffffff" stroke-width="0.80" opacity="0.820" />
<circle cx="460.80" cy="498.34" r="4.20" fill="#c8553d" stroke="#ffffff" stroke-width="0.80" opacity="0.820" />
<circle cx="313.37" cy="500.15" r="4.20" fill="#2a9d8f" stroke="#ffffff" stroke-width="0.80" opacity="0.820" />
<circle cx="194.03" cy="478.44" r="4.20" fill="#457b9d" stroke="#ffffff" stroke-width="0.80" opacity="0.820" />
<circle cx="168.58" cy="456.74" r="4.20" fill="#b08968" stroke="#ffffff" stroke-width="0.80" opacity="0.820" />
<circle cx="124.80" cy="458.55" r="4.20" fill="#6d597a" stroke="#ffffff" stroke-width="0.80" opacity="0.820" />
<circle cx="510.51" cy="502.62" r="4.20" fill="#c8553d" stroke="#ffffff" stroke-width="0.80" opacity="0.820" />
<circle cx="339.09" cy="480.91" r="4.20" fill="#2a9d8f" stroke="#ffffff" stroke-width="0.80" opacity="0.820" />
<circle cx="219.09" cy="482.72" r="4.20" fill="#457b9d" stroke="#ffffff" stroke-width="0.80" opacity="0.820" />
<circle cx="133.37" cy="461.01" r="4.20" fill="#b08968" stroke="#ffffff" stroke-width="0.80" opacity="0.820" />
<circle cx="124.80" cy="462.82" r="4.20" fill="#6d597a" stroke="#ffffff" stroke-width="0.80" opacity="0.820" />
<circle cx="433.37" cy="342.45" r="4.20" fill="#c8553d" stroke="#ffffff" stroke-width="0.80" opacity="0.820" />
<circle cx="296.23" cy="320.74" r="4.20" fill="#2a9d8f" stroke="#ffffff" stroke-width="0.80" opacity="0.820" />
<circle cx="219.09" cy="322.55" r="4.20" fill="#457b9d" stroke="#ffffff" stroke-width="0.80" opacity="0.820" />
<circle cx="184.80" cy="465.29" r="4.20" fill="#b08968" stroke="#ffffff" stroke-width="0.80" opacity="0.820" />
<circle cx="124.80" cy="443.58" r="4.20" fill="#6d597a" stroke="#ffffff" stroke-width="0.80" opacity="0.820" />
<circle cx="416.69" cy="182.28" r="4.20" fill="#c8553d" stroke="#ffffff" stroke-width="0.80" opacity="0.820" />
<circle cx="332.49" cy="325.02" r="4.20" fill="#2a9d8f" stroke="#ffffff" stroke-width="0.80" opacity="0.820" />
<circle cx="210.51" cy="303.31" r="4.20" fill="#457b9d" stroke="#ffffff" stroke-width="0.80" opacity="0.820" />
<circle cx="179.90" cy="305.12" r="4.20" fill="#b08968" stroke="#ffffff" stroke-width="0.80" opacity="0.820" />
<circle cx="124.80" cy="118.97" r="4.20" fill="#6d597a" stroke="#ffffff" stroke-width="0.80" opacity="0.820" />
<circle cx="304.80" cy="351.00" r="4.20" fill="#c8553d" stroke="#ffffff" stroke-width="0.80" opacity="0.820" />
<circle cx="339.09" cy="329.29" r="4.20" fill="#2a9d8f" stroke="#ffffff" stroke-width="0.80" opacity="0.820" />
<circle cx="219.09" cy="472.03" r="4.20" fill="#457b9d" stroke="#ffffff" stroke-width="0.80" opacity="0.820" />
<circle cx="177.74" cy="473.84" r="4.20" fill="#b08968" stroke="#ffffff" stroke-width="0.80" opacity="0.820" />
<circle cx="124.80" cy="452.13" r="4.20" fill="#6d597a" stroke="#ffffff" stroke-width="0.80" opacity="0.820" />
<circle cx="510.51" cy="496.20" r="4.20" fill="#c8553d" stroke="#ffffff" stroke-width="0.80" opacity="0.820" />
<circle cx="372.30" cy="333.57" r="4.20" fill="#2a9d8f" stroke="#ffffff" stroke-width="0.80" opacity="0.820" />
<circle cx="133.37" cy="476.31" r="4.20" fill="#457b9d" stroke="#ffffff" stroke-width="0.80" opacity="0.820" />
<circle cx="159.64" cy="454.60" r="4.20" fill="#b08968" stroke="#ffffff" stroke-width="0.80" opacity="0.820" />
<circle cx="124.80" cy="456.41" r="4.20" fill="#6d597a" stroke="#ffffff" stroke-width="0.80" opacity="0.820" />
<circle cx="516.56" cy="171.59" r="4.20" fill="#c8553d" stroke="#ffffff" stroke-width="0.80" opacity="0.820" />
<circle cx="336.56" cy="173.40" r="4.20" fill="#2a9d8f" stroke="#ffffff" stroke-width="0.80" opacity="0.820" />
<circle cx="236.88" cy="316.14" r="4.20" fill="#457b9d" stroke="#ffffff" stroke-width="0.80" opacity="0.820" />
<circle cx="167.66" cy="458.88" r="4.20" fill="#b08968" stroke="#ffffff" stroke-width="0.80" opacity="0.820" />
<circle cx="124.80" cy="460.68" r="4.20" fill="#6d597a" stroke="#ffffff" stroke-width="0.80" opacity="0.820" />
<circle cx="448.80" cy="504.76" r="4.20" fill="#c8553d" stroke="#ffffff" stroke-width="0.80" opacity="0.820" />
<circle cx="251.86" cy="483.05" r="4.20" fill="#2a9d8f" stroke="#ffffff" stroke-width="0.80" opacity="0.820" />
<circle cx="244.80" cy="484.86" r="4.20" fill="#457b9d" stroke="#ffffff" stroke-width="0.80" opacity="0.820" />
<circle cx="160.21" cy="463.15" r="4.20" fill="#b08968" stroke="#ffffff" stroke-width="0.80" opacity="0.820" />
<circle cx="124.80" cy="441.44" r="4.20" fill="#6d597a" stroke="#ffffff" stroke-width="0.80" opacity="0.820" />
<circle cx="615.71" cy="344.59" r="4.20" fill="#c8553d" stroke="#ffffff" stroke-width="0.80" opacity="0.820" />
<circle cx="327.30" cy="487.32" r="4.20" fill="#2a9d8f" stroke="#ffffff" stroke-width="0.80" opacity="0.820" />
<circle cx="217.90" cy="489.13" r="4.20" fill="#457b9d" stroke="#ffffff" stroke-width="0.80" opacity="0.820" />
<circle cx="176.23" cy="467.43" r="4.20" fill="#b08968" stroke="#ffffff" stroke-width="0.80" opacity="0.820" />
<circle cx="124.80" cy="445.72" r="4.20" fill="#6d597a" stroke="#ffffff" stroke-width="0.80" opacity="0.820" />
<circle cx="541.37" cy="348.86" r="4.20" fill="#c8553d" stroke="#ffffff" stroke-width="0.80" opacity="0.820" />
<circle cx="325.37" cy="327.16" r="4.20" fill="#2a9d8f" stroke="#ffffff" stroke-width="0.80" opacity="0.820" />
<circle cx="210.06" cy="305.45" r="4.20" fill="#457b9d" stroke="#ffffff" stroke-width="0.80" opacity="0.820" />
<circle cx="173.89" cy="142.81" r="4.20" fill="#b08968" stroke="#ffffff" stroke-width="0.80" opacity="0.820" />
<circle cx="124.80" cy="121.11" r="4.20" fill="#6d597a" stroke="#ffffff" stroke-width="0.80" opacity="0.820" />
<circle cx="501.94" cy="329.62" r="4.20" fill="#c8553d" stroke="#ffffff" stroke-width="0.80" opacity="0.820" />
<circle cx="304.80" cy="331.43" r="4.20" fill="#2a9d8f" stroke="#ffffff" stroke-width="0.80" opacity="0.820" />
<circle cx="201.94" cy="474.17" r="4.20" fill="#457b9d" stroke="#ffffff" stroke-width="0.80" opacity="0.820" />
<circle cx="176.23" cy="475.98" r="4.20" fill="#b08968" stroke="#ffffff" stroke-width="0.80" opacity="0.820" />
<circle cx="124.80" cy="125.38" r="4.20" fill="#6d597a" stroke="#ffffff" stroke-width="0.80" opacity="0.820" />
<circle cx="443.89" cy="498.34" r="4.20" fill="#c8553d" stroke="#ffffff" stroke-width="0.80" opacity="0.820" />
<circle cx="335.53" cy="500.15" r="4.20" fill="#2a9d8f" stroke="#ffffff" stroke-width="0.80" opacity="0.820" />
<circle cx="200.15" cy="478.44" r="4.20" fill="#457b9d" stroke="#ffffff" stroke-width="0.80" opacity="0.820" />
<circle cx="171.09" cy="456.74" r="4.20" fill="#b08968" stroke="#ffffff" stroke-width="0.80" opacity="0.820" />
<circle cx="124.80" cy="458.55" r="4.20" fill="#6d597a" stroke="#ffffff" stroke-width="0.80" opacity="0.820" />
<circle cx="550.25" cy="338.17" r="4.20" fill="#c8553d" stroke="#ffffff" stroke-width="0.80" opacity="0.820" />
<circle cx="340.80" cy="316.47" r="4.20" fill="#2a9d8f" stroke="#ffffff" stroke-width="0.80" opacity="0.820" />
<circle cx="207.88" cy="318.28" r="4.20" fill="#457b9d" stroke="#ffffff" stroke-width="0.80" opacity="0.820" />
<circle cx="183.18" cy="296.57" r="4.20" fill="#b08968" stroke="#ffffff" stroke-width="0.80" opacity="0.820" />
<circle cx="124.80" cy="298.38" r="4.20" fill="#6d597a" stroke="#ffffff" stroke-width="0.80" opacity="0.820" />
<circle cx="527.66" cy="506.89" r="4.20" fill="#c8553d" stroke="#ffffff" stroke-width="0.80" opacity="0.820" />
<circle cx="321.94" cy="485.19" r="4.20" fill="#2a9d8f" stroke="#ffffff" stroke-width="0.80" opacity="0.820" />
<circle cx="214.80" cy="322.55" r="4.20" fill="#457b9d" stroke="#ffffff" stroke-width="0.80" opacity="0.820" />
<circle cx="150.51" cy="465.29" r="4.20" fill="#b08968" stroke="#ffffff" stroke-width="0.80" opacity="0.820" />
<circle cx="124.80" cy="443.58" r="4.20" fill="#6d597a" stroke="#ffffff" stroke-width="0.80" opacity="0.820" />
<circle cx="532.35" cy="511.17" r="4.20" fill="#c8553d" stroke="#ffffff" stroke-width="0.80" opacity="0.820" />
<circle cx="333.83" cy="489.46" r="4.20" fill="#2a9d8f" stroke="#ffffff" stroke-width="0.80" opacity="0.820" />
<circle cx="177.06" cy="467.76" r="4.20" fill="#457b9d" stroke="#ffffff" stroke-width="0.80" opacity="0.820" />
<circle cx="164.80" cy="469.56" r="4.20" fill="#b08968" stroke="#ffffff" stroke-width="0.80" opacity="0.820" />
<circle cx="124.80" cy="447.86" r="4.20" fill="#6d597a" stroke="#ffffff" stroke-width="0.80" opacity="0.820" />
<circle cx="510.51" cy="351.00" r="4.20" fill="#c8553d" stroke="#ffffff" stroke-width="0.80" opacity="0.820" />
<circle cx="287.66" cy="329.29" r="4.20" fill="#2a9d8f" stroke="#ffffff" stroke-width="0.80" opacity="0.820" />
<circle cx="210.51" cy="472.03" r="4.20" fill="#457b9d" stroke="#ffffff" stroke-width="0.80" opacity="0.820" />
<circle cx="176.23" cy="144.95" r="4.20" fill="#b08968" stroke="#ffffff" stroke-width="0.80" opacity="0.820" />
<circle cx="124.80" cy="287.69" r="4.20" fill="#6d597a" stroke="#ffffff" stroke-width="0.80" opacity="0.820" />
<circle cx="484.80" cy="167.32" r="4.20" fill="#c8553d" stroke="#ffffff" stroke-width="0.80" opacity="0.820" />
<circle cx="330.51" cy="333.57" r="4.20" fill="#2a9d8f" stroke="#ffffff" stroke-width="0.80" opacity="0.820" />
<circle cx="242.19" cy="147.42" r="4.20" fill="#457b9d" stroke="#ffffff" stroke-width="0.80" opacity="0.820" />
<circle cx="167.66" cy="290.16" r="4.20" fill="#b08968" stroke="#ffffff" stroke-width="0.80" opacity="0.820" />
<circle cx="124.80" cy="291.96" r="4.20" fill="#6d597a" stroke="#ffffff" stroke-width="0.80" opacity="0.820" />
<circle cx="536.23" cy="500.48" r="4.20" fill="#c8553d" stroke="#ffffff" stroke-width="0.80" opacity="0.820" />
<circle cx="339.09" cy="502.29" r="4.20" fill="#2a9d8f" stroke="#ffffff" stroke-width="0.80" opacity="0.820" />
<circle cx="210.51" cy="480.58" r="4.20" fill="#457b9d" stroke="#ffffff" stroke-width="0.80" opacity="0.820" />
<circle cx="159.09" cy="458.88" r="4.20" fill="#b08968" stroke="#ffffff" stroke-width="0.80" opacity="0.820" />
<circle cx="124.80" cy="460.68" r="4.20" fill="#6d597a" stroke="#ffffff" stroke-width="0.80" opacity="0.820" />
<circle cx="497.66" cy="340.31" r="4.20" fill="#c8553d" stroke="#ffffff" stroke-width="0.80" opacity="0.820" />
<circle cx="330.51" cy="483.05" r="4.20" fill="#2a9d8f" stroke="#ffffff" stroke-width="0.80" opacity="0.820" />
<circle cx="239.35" cy="320.41" r="4.20" fill="#457b9d" stroke="#ffffff" stroke-width="0.80" opacity="0.820" />
<circle cx="141.94" cy="298.71" r="4.20" fill="#b08968" stroke="#ffffff" stroke-width="0.80" opacity="0.820" />
<circle cx="124.80" cy="112.56" r="4.20" fill="#6d597a" stroke="#ffffff" stroke-width="0.80" opacity="0.820" />
<circle cx="450.51" cy="509.03" r="4.20" fill="#c8553d" stroke="#ffffff" stroke-width="0.80" opacity="0.820" />
<circle cx="287.66" cy="487.32" r="4.20" fill="#2a9d8f" stroke="#ffffff" stroke-width="0.80" opacity="0.820" />
<circle cx="184.80" cy="489.13" r="4.20" fill="#457b9d" stroke="#ffffff" stroke-width="0.80" opacity="0.820" />
<circle cx="159.09" cy="467.43" r="4.20" fill="#b08968" stroke="#ffffff" stroke-width="0.80" opacity="0.820" />
<circle cx="124.80" cy="281.28" r="4.20" fill="#6d597a" stroke="#ffffff" stroke-width="0.80" opacity="0.820" />
<circle cx="347.66" cy="513.31" r="4.20" fill="#c8553d" stroke="#ffffff" stroke-width="0.80" opacity="0.820" />
<circle cx="159.09" cy="491.60" r="4.20" fill="#2a9d8f" stroke="#ffffff" stroke-width="0.80" opacity="0.820" />
<circle cx="227.66" cy="469.89" r="4.20" fill="#457b9d" stroke="#ffffff" stroke-width="0.80" opacity="0.820" />
<circle cx="176.23" cy="471.70" r="4.20" fill="#b08968" stroke="#ffffff" stroke-width="0.80" opacity="0.820" />
<circle cx="124.80" cy="450.00" r="4.20" fill="#6d597a" stroke="#ffffff" stroke-width="0.80" opacity="0.820" />
<circle cx="484.80" cy="329.62" r="4.20" fill="#c8553d" stroke="#ffffff" stroke-width="0.80" opacity="0.820" />
<circle cx="347.66" cy="495.88" r="4.20" fill="#2a9d8f" stroke="#ffffff" stroke-width="0.80" opacity="0.820" />
<circle cx="167.66" cy="474.17" r="4.20" fill="#457b9d" stroke="#ffffff" stroke-width="0.80" opacity="0.820" />
<circle cx="176.23" cy="475.98" r="4.20" fill="#b08968" stroke="#ffffff" stroke-width="0.80" opacity="0.820" />
<circle cx="124.80" cy="454.27" r="4.20" fill="#6d597a" stroke="#ffffff" stroke-width="0.80" opacity="0.820" />
<circle cx="603.09" cy="498.34" r="4.20" fill="#c8553d" stroke="#ffffff" stroke-width="0.80" opacity="0.820" />
<circle cx="356.23" cy="500.15" r="4.20" fill="#2a9d8f" stroke="#ffffff" stroke-width="0.80" opacity="0.820" />
<circle cx="240.51" cy="478.44" r="4.20" fill="#457b9d" stroke="#ffffff" stroke-width="0.80" opacity="0.820" />
<circle cx="167.66" cy="456.74" r="4.20" fill="#b08968" stroke="#ffffff" stroke-width="0.80" opacity="0.820" />
<circle cx="124.80" cy="458.55" r="4.20" fill="#6d597a" stroke="#ffffff" stroke-width="0.80" opacity="0.820" />
<circle cx="510.51" cy="502.62" r="4.20" fill="#c8553d" stroke="#ffffff" stroke-width="0.80" opacity="0.820" />
<circle cx="236.23" cy="480.91" r="4.20" fill="#2a9d8f" stroke="#ffffff" stroke-width="0.80" opacity="0.820" />
<circle cx="243.34" cy="482.72" r="4.20" fill="#457b9d" stroke="#ffffff" stroke-width="0.80" opacity="0.820" />
<circle cx="184.80" cy="461.01" r="4.20" fill="#b08968" stroke="#ffffff" stroke-width="0.80" opacity="0.820" />
<circle cx="124.80" cy="462.82" r="4.20" fill="#6d597a" stroke="#ffffff" stroke-width="0.80" opacity="0.820" />
<circle cx="479.66" cy="178.00" r="4.20" fill="#c8553d" stroke="#ffffff" stroke-width="0.80" opacity="0.820" />
<circle cx="336.10" cy="320.74" r="4.20" fill="#2a9d8f" stroke="#ffffff" stroke-width="0.80" opacity="0.820" />
<circle cx="226.05" cy="322.55" r="4.20" fill="#457b9d" stroke="#ffffff" stroke-width="0.80" opacity="0.820" />
<circle cx="184.80" cy="300.84" r="4.20" fill="#b08968" stroke="#ffffff" stroke-width="0.80" opacity="0.820" />
<circle cx="124.80" cy="114.69" r="4.20" fill="#6d597a" stroke="#ffffff" stroke-width="0.80" opacity="0.820" />
<circle cx="459.97" cy="511.17" r="4.20" fill="#c8553d" stroke="#ffffff" stroke-width="0.80" opacity="0.820" />
<circle cx="321.94" cy="489.46" r="4.20" fill="#2a9d8f" stroke="#ffffff" stroke-width="0.80" opacity="0.820" />
<circle cx="148.28" cy="303.31" r="4.20" fill="#457b9d" stroke="#ffffff" stroke-width="0.80" opacity="0.820" />
<circle cx="183.18" cy="469.56" r="4.20" fill="#b08968" stroke="#ffffff" stroke-width="0.80" opacity="0.820" />
<circle cx="124.80" cy="447.86" r="4.20" fill="#6d597a" stroke="#ffffff" stroke-width="0.80" opacity="0.820" />
<circle cx="519.09" cy="515.44" r="4.20" fill="#c8553d" stroke="#ffffff" stroke-width="0.80" opacity="0.820" />
<circle cx="319.20" cy="493.74" r="4.20" fill="#2a9d8f" stroke="#ffffff" stroke-width="0.80" opacity="0.820" />
<circle cx="218.26" cy="472.03" r="4.20" fill="#457b9d" stroke="#ffffff" stroke-width="0.80" opacity="0.820" />
<circle cx="176.23" cy="473.84" r="4.20" fill="#b08968" stroke="#ffffff" stroke-width="0.80" opacity="0.820" />
<circle cx="124.80" cy="452.13" r="4.20" fill="#6d597a" stroke="#ffffff" stroke-width="0.80" opacity="0.820" />
<circle cx="510.51" cy="496.20" r="4.20" fill="#c8553d" stroke="#ffffff" stroke-width="0.80" opacity="0.820" />
<circle cx="184.80" cy="498.01" r="4.20" fill="#2a9d8f" stroke="#ffffff" stroke-width="0.80" opacity="0.820" />
<circle cx="167.66" cy="476.31" r="4.20" fill="#457b9d" stroke="#ffffff" stroke-width="0.80" opacity="0.820" />
<circle cx="184.80" cy="454.60" r="4.20" fill="#b08968" stroke="#ffffff" stroke-width="0.80" opacity="0.820" />
<circle cx="124.80" cy="456.41" r="4.20" fill="#6d597a" stroke="#ffffff" stroke-width="0.80" opacity="0.820" />
<circle cx="484.80" cy="336.04" r="4.20" fill="#c8553d" stroke="#ffffff" stroke-width="0.80" opacity="0.820" />
<circle cx="349.80" cy="173.40" r="4.20" fill="#2a9d8f" stroke="#ffffff" stroke-width="0.80" opacity="0.820" />
<circle cx="201.94" cy="480.58" r="4.20" fill="#457b9d" stroke="#ffffff" stroke-width="0.80" opacity="0.820" />
<circle cx="176.23" cy="294.43" r="4.20" fill="#b08968" stroke="#ffffff" stroke-width="0.80" opacity="0.820" />
<circle cx="124.80" cy="296.24" r="4.20" fill="#6d597a" stroke="#ffffff" stroke-width="0.80" opacity="0.820" />
<circle cx="439.80" cy="504.76" r="4.20" fill="#c8553d" stroke="#ffffff" stroke-width="0.80" opacity="0.820" />
<circle cx="297.60" cy="483.05" r="4.20" fill="#2a9d8f" stroke="#ffffff" stroke-width="0.80" opacity="0.820" />
<circle cx="232.80" cy="484.86" r="4.20" fill="#457b9d" stroke="#ffffff" stroke-width="0.80" opacity="0.820" />
<circle cx="184.80" cy="463.15" r="4.20" fill="#b08968" stroke="#ffffff" stroke-width="0.80" opacity="0.820" />
<circle cx="124.80" cy="441.44" r="4.20" fill="#6d597a" stroke="#ffffff" stroke-width="0.80" opacity="0.820" />
<circle cx="632.40" cy="509.03" r="4.20" fill="#c8553d" stroke="#ffffff" stroke-width="0.80" opacity="0.820" />
<circle cx="227.66" cy="322.88" r="4.20" fill="#2a9d8f" stroke="#ffffff" stroke-width="0.80" opacity="0.820" />
<circle cx="219.09" cy="489.13" r="4.20" fill="#457b9d" stroke="#ffffff" stroke-width="0.80" opacity="0.820" />
<circle cx="184.80" cy="302.98" r="4.20" fill="#b08968" stroke="#ffffff" stroke-width="0.80" opacity="0.820" />
<circle cx="124.80" cy="281.28" r="4.20" fill="#6d597a" stroke="#ffffff" stroke-width="0.80" opacity="0.820" />
<circle cx="287.66" cy="513.31" r="4.20" fill="#c8553d" stroke="#ffffff" stroke-width="0.80" opacity="0.820" />
<circle cx="236.23" cy="491.60" r="4.20" fill="#2a9d8f" stroke="#ffffff" stroke-width="0.80" opacity="0.820" />
<circle cx="241.56" cy="469.89" r="4.20" fill="#457b9d" stroke="#ffffff" stroke-width="0.80" opacity="0.820" />
<circle cx="172.80" cy="142.81" r="4.20" fill="#b08968" stroke="#ffffff" stroke-width="0.80" opacity="0.820" />
<circle cx="124.80" cy="285.55" r="4.20" fill="#6d597a" stroke="#ffffff" stroke-width="0.80" opacity="0.820" />
<circle cx="583.80" cy="165.18" r="4.20" fill="#c8553d" stroke="#ffffff" stroke-width="0.80" opacity="0.820" />
<circle cx="304.80" cy="331.43" r="4.20" fill="#2a9d8f" stroke="#ffffff" stroke-width="0.80" opacity="0.820" />
<circle cx="210.51" cy="309.72" r="4.20" fill="#457b9d" stroke="#ffffff" stroke-width="0.80" opacity="0.820" />
<circle cx="141.94" cy="311.53" r="4.20" fill="#b08968" stroke="#ffffff" stroke-width="0.80" opacity="0.820" />
<circle cx="124.80" cy="125.38" r="4.20" fill="#6d597a" stroke="#ffffff" stroke-width="0.80" opacity="0.820" />
<circle cx="529.80" cy="498.34" r="4.20" fill="#c8553d" stroke="#ffffff" stroke-width="0.80" opacity="0.820" />
<circle cx="363.04" cy="500.15" r="4.20" fill="#2a9d8f" stroke="#ffffff" stroke-width="0.80" opacity="0.820" />
<circle cx="221.23" cy="478.44" r="4.20" fill="#457b9d" stroke="#ffffff" stroke-width="0.80" opacity="0.820" />
<circle cx="168.58" cy="456.74" r="4.20" fill="#b08968" stroke="#ffffff" stroke-width="0.80" opacity="0.820" />
<circle cx="124.80" cy="458.55" r="4.20" fill="#6d597a" stroke="#ffffff" stroke-width="0.80" opacity="0.820" />
<circle cx="537.74" cy="173.73" r="4.20" fill="#c8553d" stroke="#ffffff" stroke-width="0.80" opacity="0.820" />
<circle cx="281.57" cy="316.47" r="4.20" fill="#2a9d8f" stroke="#ffffff" stroke-width="0.80" opacity="0.820" />
<circle cx="236.23" cy="482.72" r="4.20" fill="#457b9d" stroke="#ffffff" stroke-width="0.80" opacity="0.820" />
<circle cx="133.37" cy="296.57" r="4.20" fill="#b08968" stroke="#ffffff" stroke-width="0.80" opacity="0.820" />
<circle cx="124.80" cy="133.93" r="4.20" fill="#6d597a" stroke="#ffffff" stroke-width="0.80" opacity="0.820" />
<circle cx="544.80" cy="506.89" r="4.20" fill="#c8553d" stroke="#ffffff" stroke-width="0.80" opacity="0.820" />
<circle cx="193.37" cy="485.19" r="4.20" fill="#2a9d8f" stroke="#ffffff" stroke-width="0.80" opacity="0.820" />
<circle cx="176.23" cy="487.00" r="4.20" fill="#457b9d" stroke="#ffffff" stroke-width="0.80" opacity="0.820" />
<circle cx="159.64" cy="465.29" r="4.20" fill="#b08968" stroke="#ffffff" stroke-width="0.80" opacity="0.820" />
<circle cx="124.80" cy="443.58" r="4.20" fill="#6d597a" stroke="#ffffff" stroke-width="0.80" opacity="0.820" />
<circle cx="505.46" cy="346.72" r="4.20" fill="#c8553d" stroke="#ffffff" stroke-width="0.80" opacity="0.820" />
<circle cx="330.51" cy="325.02" r="4.20" fill="#2a9d8f" stroke="#ffffff" stroke-width="0.80" opacity="0.820" />
<circle cx="230.87" cy="138.87" r="4.20" fill="#457b9d" stroke="#ffffff" stroke-width="0.80" opacity="0.820" />
<circle cx="176.23" cy="305.12" r="4.20" fill="#b08968" stroke="#ffffff" stroke-width="0.80" opacity="0.820" />
<circle cx="124.80" cy="118.97" r="4.20" fill="#6d597a" stroke="#ffffff" stroke-width="0.80" opacity="0.820" />
<circle cx="536.23" cy="351.00" r="4.20" fill="#c8553d" stroke="#ffffff" stroke-width="0.80" opacity="0.820" />
<circle cx="313.37" cy="493.74" r="4.20" fill="#2a9d8f" stroke="#ffffff" stroke-width="0.80" opacity="0.820" />
<circle cx="207.88" cy="472.03" r="4.20" fill="#457b9d" stroke="#ffffff" stroke-width="0.80" opacity="0.820" />
<circle cx="173.89" cy="473.84" r="4.20" fill="#b08968" stroke="#ffffff" stroke-width="0.80" opacity="0.820" />
<circle cx="124.80" cy="287.69" r="4.20" fill="#6d597a" stroke="#ffffff" stroke-width="0.80" opacity="0.820" />
<circle cx="493.37" cy="496.20" r="4.20" fill="#c8553d" stroke="#ffffff" stroke-width="0.80" opacity="0.820" />
<circle cx="348.70" cy="498.01" r="4.20" fill="#2a9d8f" stroke="#ffffff" stroke-width="0.80" opacity="0.820" />
<circle cx="227.66" cy="476.31" r="4.20" fill="#457b9d" stroke="#ffffff" stroke-width="0.80" opacity="0.820" />
<circle cx="148.80" cy="454.60" r="4.20" fill="#b08968" stroke="#ffffff" stroke-width="0.80" opacity="0.820" />
<circle cx="124.80" cy="456.41" r="4.20" fill="#6d597a" stroke="#ffffff" stroke-width="0.80" opacity="0.820" />
<circle cx="420.51" cy="500.48" r="4.20" fill="#c8553d" stroke="#ffffff" stroke-width="0.80" opacity="0.820" />
<circle cx="372.91" cy="502.29" r="4.20" fill="#2a9d8f" stroke="#ffffff" stroke-width="0.80" opacity="0.820" />
<circle cx="207.88" cy="480.58" r="4.20" fill="#457b9d" stroke="#ffffff" stroke-width="0.80" opacity="0.820" />
<circle cx="176.23" cy="458.88" r="4.20" fill="#b08968" stroke="#ffffff" stroke-width="0.80" opacity="0.820" />
<circle cx="124.80" cy="460.68" r="4.20" fill="#6d597a" stroke="#ffffff" stroke-width="0.80" opacity="0.820" />
<circle cx="459.97" cy="175.87" r="4.20" fill="#c8553d" stroke="#ffffff" stroke-width="0.80" opacity="0.820" />
<circle cx="356.23" cy="154.16" r="4.20" fill="#2a9d8f" stroke="#ffffff" stroke-width="0.80" opacity="0.820" />
<circle cx="184.80" cy="155.97" r="4.20" fill="#457b9d" stroke="#ffffff" stroke-width="0.80" opacity="0.820" />
<circle cx="146.40" cy="134.26" r="4.20" fill="#b08968" stroke="#ffffff" stroke-width="0.80" opacity="0.820" />
<circle cx="124.80" cy="277.00" r="4.20" fill="#6d597a" stroke="#ffffff" stroke-width="0.80" opacity="0.820" />
<circle cx="510.51" cy="509.03" r="4.20" fill="#c8553d" stroke="#ffffff" stroke-width="0.80" opacity="0.820" />
<circle cx="287.66" cy="487.32" r="4.20" fill="#2a9d8f" stroke="#ffffff" stroke-width="0.80" opacity="0.820" />
<circle cx="201.94" cy="489.13" r="4.20" fill="#457b9d" stroke="#ffffff" stroke-width="0.80" opacity="0.820" />
<circle cx="159.09" cy="467.43" r="4.20" fill="#b08968" stroke="#ffffff" stroke-width="0.80" opacity="0.820" />
<circle cx="124.80" cy="445.72" r="4.20" fill="#6d597a" stroke="#ffffff" stroke-width="0.80" opacity="0.820" />
<circle cx="463.62" cy="513.31" r="4.20" fill="#c8553d" stroke="#ffffff" stroke-width="0.80" opacity="0.820" />
<circle cx="270.51" cy="491.60" r="4.20" fill="#2a9d8f" stroke="#ffffff" stroke-width="0.80" opacity="0.820" />
<circle cx="200.59" cy="469.89" r="4.20" fill="#457b9d" stroke="#ffffff" stroke-width="0.80" opacity="0.820" />
<circle cx="178.80" cy="471.70" r="4.20" fill="#b08968" stroke="#ffffff" stroke-width="0.80" opacity="0.820" />
<circle cx="124.80" cy="450.00" r="4.20" fill="#6d597a" stroke="#ffffff" stroke-width="0.80" opacity="0.820" />
<polygon points="248.97,469.94 257.47,478.44 248.97,486.94 240.47,478.44" fill="#111111" stroke="#ffffff" stroke-width="1.20" />
<text x="260.97" y="470.44" font-size="10" fill="#444444" font-family="Times New Roman, Times, serif" text-anchor="start" font-weight="normal">mean 0.230</text>
<polygon points="274.23,305.50 282.73,314.00 274.23,322.50 265.73,314.00" fill="#111111" stroke="#ffffff" stroke-width="1.20" />
<text x="286.23" y="306.00" font-size="10" fill="#444444" font-family="Times New Roman, Times, serif" text-anchor="start" font-weight="normal">mean 0.277</text>
<polygon points="285.43,141.06 293.93,149.56 285.43,158.06 276.93,149.56" fill="#111111" stroke="#ffffff" stroke-width="1.20" />
<text x="297.43" y="141.56" font-size="10" fill="#444444" font-family="Times New Roman, Times, serif" text-anchor="start" font-weight="normal">mean 0.297</text>
<circle cx="100.00" cy="664.00" r="5.50" fill="#c8553d" stroke="none" stroke-width="1.00" opacity="1.000" />
<text x="112.00" y="668.00" font-size="11" fill="#444444" font-family="Times New Roman, Times, serif" text-anchor="start" font-weight="normal">update1</text>
<circle cx="210.00" cy="664.00" r="5.50" fill="#2a9d8f" stroke="none" stroke-width="1.00" opacity="1.000" />
<text x="222.00" y="668.00" font-size="11" fill="#444444" font-family="Times New Roman, Times, serif" text-anchor="start" font-weight="normal">update2</text>
<circle cx="320.00" cy="664.00" r="5.50" fill="#457b9d" stroke="none" stroke-width="1.00" opacity="1.000" />
<text x="332.00" y="668.00" font-size="11" fill="#444444" font-family="Times New Roman, Times, serif" text-anchor="start" font-weight="normal">update4</text>
<circle cx="430.00" cy="664.00" r="5.50" fill="#b08968" stroke="none" stroke-width="1.00" opacity="1.000" />
<text x="442.00" y="668.00" font-size="11" fill="#444444" font-family="Times New Roman, Times, serif" text-anchor="start" font-weight="normal">update8</text>
<circle cx="540.00" cy="664.00" r="5.50" fill="#6d597a" stroke="none" stroke-width="1.00" opacity="1.000" />
<text x="552.00" y="668.00" font-size="11" fill="#444444" font-family="Times New Roman, Times, serif" text-anchor="start" font-weight="normal">frozen</text>
</svg>