<svg xmlns="http://www.w3.org/2000/svg" width="1180" height="520" viewBox="0 0 1180 520">
<rect x="0.00" y="0.00" width="1180.00" height="520.00" fill="#ffffff" stroke="none" stroke-width="1.00" rx="0.00" />
<text x="590.00" y="26.00" font-size="18" fill="#222222" font-family="Times New Roman, Times, serif" text-anchor="middle" font-weight="bold">Experiment 11: core decoder quality vs latency</text>
<rect x="26.00" y="44.00" width="736.00" height="428.00" fill="#ffffff" stroke="#dddddd" stroke-width="1.00" rx="14.00" />
<text x="394.00" y="68.00" font-size="17" fill="#222222" font-family="Times New Roman, Times, serif" text-anchor="middle" font-weight="bold">TruthfulQA MC results</text>
<text x="394.00" y="88.00" font-size="11" fill="#444444" font-family="Times New Roman, Times, serif" text-anchor="middle" font-weight="normal">Experiment 11 saved run, selected decoders only</text>
<rect x="50.00" y="103.00" width="14.00" height="14.00" fill="#355070" stroke="none" stroke-width="1.00" rx="3.00" />
<text x="72.00" y="114.00" font-size="11" fill="#222222" font-family="Times New Roman, Times, serif" text-anchor="start" font-weight="normal">greedy</text>
<rect x="166.00" y="103.00" width="14.00" height="14.00" fill="#e07a5f" stroke="none" stroke-width="1.00" rx="3.00" />
<text x="188.00" y="114.00" font-size="11" fill="#222222" font-family="Times New Roman, Times, serif" text-anchor="start" font-weight="normal">top k</text>
<rect x="282.00" y="103.00" width="14.00" height="14.00" fill="#2a9d8f" stroke="none" stroke-width="1.00" rx="3.00" />
<text x="304.00" y="114.00" font-size="11" fill="#222222" font-family="Times New Roman, Times, serif" text-anchor="start" font-weight="normal">top p</text>
<rect x="50.00" y="125.00" width="14.00" height="14.00" fill="#6d597a" stroke="none" stroke-width="1.00" rx="3.00" />
<text x="72.00" y="136.00" font-size="11" fill="#222222" font-family="Times New Roman, Times, serif" text-anchor="start" font-weight="normal">dola</text>
<rect x="166.00" y="125.00" width="14.00" height="14.00" fill="#5f0f40" stroke="none" stroke-width="1.00" rx="3.00" />
<text x="188.00" y="136.00" font-size="11" fill="#222222" font-family="Times New Roman, Times, serif" text-anchor="start" font-weight="normal">panda</text>
<line x1="108.00" y1="396.00" x2="736.00" y2="396.00" stroke="#d9d9d9" stroke-width="1.00" />
<text x="98.00" y="400.00" font-size="10" fill="#444444" font-family="Times New Roman, Times, serif" text-anchor="end" font-weight="normal">0.00</text>
<line x1="108.00" y1="334.50" x2="736.00" y2="334.50" stroke="#d9d9d9" stroke-width="1.00" />
<text x="98.00" y="338.50" font-size="10" fill="#444444" font-family="Times New Roman, Times, serif" text-anchor="end" font-weight="normal">0.25</text>
<line x1="108.00" y1="273.00" x2="736.00" y2="273.00" stroke="#d9d9d9" stroke-width="1.00" />
<text x="98.00" y="277.00" font-size="10" fill="#444444" font-family="Times New Roman, Times, serif" text-anchor="end" font-weight="normal">0.50</text>
<line x1="108.00" y1="211.50" x2="736.00" y2="211.50" stroke="#d9d9d9" stroke-width="1.00" />
<text x="98.00" y="215.50" font-size="10" fill="#444444" font-family="Times New Roman, Times, serif" text-anchor="end" font-weight="normal">0.75</text>
<line x1="108.00" y1="150.00" x2="736.00" y2="150.00" stroke="#d9d9d9" stroke-width="1.00" />
<text x="98.00" y="154.00" font-size="10" fill="#444444" font-family="Times New Roman, Times, serif" text-anchor="end" font-weight="normal">1.00</text>
<line x1="108.00" y1="150.00" x2="108.00" y2="396.00" stroke="#222222" stroke-width="1.10" />
<line x1="108.00" y1="396.00" x2="736.00" y2="396.00" stroke="#222222" stroke-width="1.10" />
<text x="394.00" y="442.00" font-size="11" fill="#444444" font-family="Times New Roman, Times, serif" text-anchor="middle" font-weight="normal">Higher is better</text>
<rect x="136.67" y="312.36" width="24.00" height="83.64" fill="#355070" stroke="#1f1f1f" stroke-width="1.20" rx="6.00" />
<line x1="148.67" y1="295.71" x2="148.67" y2="329.01" stroke="#1f1f1f" stroke-width="1.00" />
<line x1="143.67" y1="295.71" x2="153.67" y2="295.71" stroke="#1f1f1f" stroke-width="1.00" />
<line x1="143.67" y1="329.01" x2="153.67" y2="329.01" stroke="#1f1f1f" stroke-width="1.00" />
<text x="148.67" y="304.36" font-size="10" fill="#355070" font-family="Times New Roman, Times, serif" text-anchor="middle" font-weight="normal">0.340</text>
<rect x="168.67" y="386.16" width="24.00" height="9.84" fill="#e07a5f" stroke="none" stroke-width="1.00" rx="6.00" />
<line x1="180.67" y1="379.27" x2="180.67" y2="393.05" stroke="#1f1f1f" stroke-width="1.00" />
<line x1="175.67" y1="379.27" x2="185.67" y2="379.27" stroke="#1f1f1f" stroke-width="1.00" />
<line x1="175.67" y1="393.05" x2="185.67" y2="393.05" stroke="#1f1f1f" stroke-width="1.00" />
<text x="180.67" y="378.16" font-size="10" fill="#e07a5f" font-family="Times New Roman, Times, serif" text-anchor="middle" font-weight="normal">0.040</text>
<rect x="200.67" y="396.00" width="24.00" height="1.00" fill="#2a9d8f" stroke="none" stroke-width="1.00" rx="6.00" />
<text x="212.67" y="388.00" font-size="10" fill="#2a9d8f" font-family="Times New Roman, Times, serif" text-anchor="middle" font-weight="normal">0.000</text>
<rect x="232.67" y="327.12" width="24.00" height="68.88" fill="#6d597a" stroke="none" stroke-width="1.00" rx="6.00" />
<line x1="244.67" y1="311.34" x2="244.67" y2="342.90" stroke="#1f1f1f" stroke-width="1.00" />
<line x1="239.67" y1="311.34" x2="249.67" y2="311.34" stroke="#1f1f1f" stroke-width="1.00" />
<line x1="239.67" y1="342.90" x2="249.67" y2="342.90" stroke="#1f1f1f" stroke-width="1.00" />
<text x="244.67" y="319.12" font-size="10" fill="#6d597a" font-family="Times New Roman, Times, serif" text-anchor="middle" font-weight="normal">0.280</text>
<rect x="264.67" y="312.36" width="24.00" height="83.64" fill="#5f0f40" stroke="none" stroke-width="1.00" rx="6.00" />
<line x1="276.67" y1="295.71" x2="276.67" y2="329.01" stroke="#1f1f1f" stroke-width="1.00" />
<line x1="271.67" y1="295.71" x2="281.67" y2="295.71" stroke="#1f1f1f" stroke-width="1.00" />
<line x1="271.67" y1="329.01" x2="281.67" y2="329.01" stroke="#1f1f1f" stroke-width="1.00" />
<text x="276.67" y="304.36" font-size="10" fill="#5f0f40" font-family="Times New Roman, Times, serif" text-anchor="middle" font-weight="normal">0.340</text>
<text x="212.67" y="420.00" font-size="11" fill="#222222" font-family="Times New Roman, Times, serif" text-anchor="middle" font-weight="bold">MC1</text>
<rect x="346.00" y="265.27" width="24.00" height="130.73" fill="#355070" stroke="none" stroke-width="1.00" rx="6.00" />
<line x1="358.00" y1="248.74" x2="358.00" y2="281.80" stroke="#1f1f1f" stroke-width="1.00" />
<line x1="353.00" y1="248.74" x2="363.00" y2="248.74" stroke="#1f1f1f" stroke-width="1.00" />
<line x1="353.00" y1="281.80" x2="363.00" y2="281.80" stroke="#1f1f1f" stroke-width="1.00" />
<text x="358.00" y="257.27" font-size="10" fill="#355070" font-family="Times New Roman, Times, serif" text-anchor="middle" font-weight="normal">0.531</text>
<rect x="378.00" y="341.33" width="24.00" height="54.67" fill="#e07a5f" stroke="none" stroke-width="1.00" rx="6.00" />
<line x1="390.00" y1="325.99" x2="390.00" y2="356.67" stroke="#1f1f1f" stroke-width="1.00" />
<line x1="385.00" y1="325.99" x2="395.00" y2="325.99" stroke="#1f1f1f" stroke-width="1.00" />
<line x1="385.00" y1="356.67" x2="395.00" y2="356.67" stroke="#1f1f1f" stroke-width="1.00" />
<text x="390.00" y="333.33" font-size="10" fill="#e07a5f" font-family="Times New Roman, Times, serif" text-anchor="middle" font-weight="normal">0.222</text>
<line x1="410.00" y1="394.00" x2="434.00" y2="394.00" stroke="#bbbbbb" stroke-width="1.10" stroke-dasharray="3 2" />
<text x="422.00" y="376.00" font-size="9" fill="#444444" font-family="Times New Roman, Times, serif" text-anchor="middle" font-weight="normal">all choices</text>
<text x="422.00" y="388.00" font-size="9" fill="#444444" font-family="Times New Roman, Times, serif" text-anchor="middle" font-weight="normal">truncated</text>
<rect x="442.00" y="266.16" width="24.00" height="129.84" fill="#6d597a" stroke="none" stroke-width="1.00" rx="6.00" />
<line x1="454.00" y1="249.22" x2="454.00" y2="283.09" stroke="#1f1f1f" stroke-width="1.00" />
<line x1="449.00" y1="249.22" x2="459.00" y2="249.22" stroke="#1f1f1f" stroke-width="1.00" />
<line x1="449.00" y1="283.09" x2="459.00" y2="283.09" stroke="#1f1f1f" stroke-width="1.00" />
<text x="454.00" y="258.16" font-size="10" fill="#6d597a" font-family="Times New Roman, Times, serif" text-anchor="middle" font-weight="normal">0.528</text>
<rect x="474.00" y="257.95" width="24.00" height="138.05" fill="#5f0f40" stroke="#1f1f1f" stroke-width="1.20" rx="6.00" />
<line x1="486.00" y1="241.38" x2="486.00" y2="274.53" stroke="#1f1f1f" stroke-width="1.00" />
<line x1="481.00" y1="241.38" x2="491.00" y2="241.38" stroke="#1f1f1f" stroke-width="1.00" />
<line x1="481.00" y1="274.53" x2="491.00" y2="274.53" stroke="#1f1f1f" stroke-width="1.00" />
<text x="486.00" y="249.95" font-size="10" fill="#5f0f40" font-family="Times New Roman, Times, serif" text-anchor="middle" font-weight="normal">0.561</text>
<text x="422.00" y="420.00" font-size="11" fill="#222222" font-family="Times New Roman, Times, serif" text-anchor="middle" font-weight="bold">MC2</text>
<rect x="555.33" y="320.48" width="24.00" height="75.52" fill="#355070" stroke="none" stroke-width="1.00" rx="6.00" />
<line x1="567.33" y1="307.57" x2="567.33" y2="333.39" stroke="#1f1f1f" stroke-width="1.00" />
<line x1="562.33" y1="307.57" x2="572.33" y2="307.57" stroke="#1f1f1f" stroke-width="1.00" />
<line x1="562.33" y1="333.39" x2="572.33" y2="333.39" stroke="#1f1f1f" stroke-width="1.00" />
<text x="567.33" y="312.48" font-size="10" fill="#355070" font-family="Times New Roman, Times, serif" text-anchor="middle" font-weight="normal">0.307</text>
<rect x="587.33" y="386.16" width="24.00" height="9.84" fill="#e07a5f" stroke="none" stroke-width="1.00" rx="6.00" />
<line x1="599.33" y1="379.27" x2="599.33" y2="393.05" stroke="#1f1f1f" stroke-width="1.00" />
<line x1="594.33" y1="379.27" x2="604.33" y2="379.27" stroke="#1f1f1f" stroke-width="1.00" />
<line x1="594.33" y1="393.05" x2="604.33" y2="393.05" stroke="#1f1f1f" stroke-width="1.00" />
<text x="599.33" y="378.16" font-size="10" fill="#e07a5f" font-family="Times New Roman, Times, serif" text-anchor="middle" font-weight="normal">0.040</text>
<rect x="619.33" y="396.00" width="24.00" height="1.00" fill="#2a9d8f" stroke="none" stroke-width="1.00" rx="6.00" />
<text x="631.33" y="388.00" font-size="10" fill="#2a9d8f" font-family="Times New Roman, Times, serif" text-anchor="middle" font-weight="normal">0.000</text>
<rect x="651.33" y="328.84" width="24.00" height="67.16" fill="#6d597a" stroke="none" stroke-width="1.00" rx="6.00" />
<line x1="663.33" y1="317.22" x2="663.33" y2="340.46" stroke="#1f1f1f" stroke-width="1.00" />
<line x1="658.33" y1="317.22" x2="668.33" y2="317.22" stroke="#1f1f1f" stroke-width="1.00" />
<line x1="658.33" y1="340.46" x2="668.33" y2="340.46" stroke="#1f1f1f" stroke-width="1.00" />
<text x="663.33" y="320.84" font-size="10" fill="#6d597a" font-family="Times New Roman, Times, serif" text-anchor="middle" font-weight="normal">0.273</text>
<rect x="683.33" y="318.84" width="24.00" height="77.16" fill="#5f0f40" stroke="#1f1f1f" stroke-width="1.20" rx="6.00" />
<line x1="695.33" y1="306.14" x2="695.33" y2="331.53" stroke="#1f1f1f" stroke-width="1.00" />
<line x1="690.33" y1="306.14" x2="700.33" y2="306.14" stroke="#1f1f1f" stroke-width="1.00" />
<line x1="690.33" y1="331.53" x2="700.33" y2="331.53" stroke="#1f1f1f" stroke-width="1.00" />
<text x="695.33" y="310.84" font-size="10" fill="#5f0f40" font-family="Times New Roman, Times, serif" text-anchor="middle" font-weight="normal">0.314</text>
<text x="631.33" y="420.00" font-size="11" fill="#222222" font-family="Times New Roman, Times, serif" text-anchor="middle" font-weight="bold">MC3</text>
<rect x="784.00" y="44.00" width="370.00" height="428.00" fill="#ffffff" stroke="#dddddd" stroke-width="1.00" rx="14.00" />
<text x="969.00" y="68.00" font-size="17" fill="#222222" font-family="Times New Roman, Times, serif" text-anchor="middle" font-weight="bold">Latency</text>
<text x="969.00" y="88.00" font-size="11" fill="#444444" font-family="Times New Roman, Times, serif" text-anchor="middle" font-weight="normal">Mean ms per decoding step</text>
<line x1="876.00" y1="120.00" x2="876.00" y2="388.00" stroke="#d9d9d9" stroke-width="1.00" />
<text x="876.00" y="412.00" font-size="10" fill="#444444" font-family="Times New Roman, Times, serif" text-anchor="middle" font-weight="normal">0</text>
<line x1="938.00" y1="120.00" x2="938.00" y2="388.00" stroke="#d9d9d9" stroke-width="1.00" />
<text x="938.00" y="412.00" font-size="10" fill="#444444" font-family="Times New Roman, Times, serif" text-anchor="middle" font-weight="normal">50</text>
<line x1="1000.00" y1="120.00" x2="1000.00" y2="388.00" stroke="#d9d9d9" stroke-width="1.00" />
<text x="1000.00" y="412.00" font-size="10" fill="#444444" font-family="Times New Roman, Times, serif" text-anchor="middle" font-weight="normal">100</text>
<line x1="1062.00" y1="120.00" x2="1062.00" y2="388.00" stroke="#d9d9d9" stroke-width="1.00" />
<text x="1062.00" y="412.00" font-size="10" fill="#444444" font-family="Times New Roman, Times, serif" text-anchor="middle" font-weight="normal">150</text>
<line x1="1124.00" y1="120.00" x2="1124.00" y2="388.00" stroke="#d9d9d9" stroke-width="1.00" />
<text x="1124.00" y="412.00" font-size="10" fill="#444444" font-family="Times New Roman, Times, serif" text-anchor="middle" font-weight="normal">200</text>
<line x1="876.00" y1="120.00" x2="876.00" y2="388.00" stroke="#222222" stroke-width="1.10" />
<line x1="876.00" y1="388.00" x2="1124.00" y2="388.00" stroke="#222222" stroke-width="1.10" />
<text x="1000.00" y="434.00" font-size="11" fill="#444444" font-family="Times New Roman, Times, serif" text-anchor="middle" font-weight="normal">Milliseconds</text>
<text x="864.00" y="150.80" font-size="11" fill="#444444" font-family="Times New Roman, Times, serif" text-anchor="end" font-weight="normal">greedy</text>
<rect x="876.00" y="131.80" width="49.19" height="30.00" fill="#355070" stroke="none" stroke-width="1.00" rx="8.00" />
<text x="933.19" y="150.80" font-size="11" fill="#355070" font-family="Times New Roman, Times, serif" text-anchor="start" font-weight="bold">39.7</text>
<text x="864.00" y="204.40" font-size="11" fill="#444444" font-family="Times New Roman, Times, serif" text-anchor="end" font-weight="normal">top k</text>
<rect x="876.00" y="185.40" width="50.67" height="30.00" fill="#e07a5f" stroke="none" stroke-width="1.00" rx="8.00" />
<text x="934.67" y="204.40" font-size="11" fill="#e07a5f" font-family="Times New Roman, Times, serif" text-anchor="start" font-weight="bold">40.9</text>
<text x="864.00" y="258.00" font-size="11" fill="#444444" font-family="Times New Roman, Times, serif" text-anchor="end" font-weight="normal">top p</text>
<rect x="876.00" y="239.00" width="51.21" height="30.00" fill="#2a9d8f" stroke="none" stroke-width="1.00" rx="8.00" />
<text x="935.21" y="258.00" font-size="11" fill="#2a9d8f" font-family="Times New Roman, Times, serif" text-anchor="start" font-weight="bold">41.3</text>
<text x="864.00" y="311.60" font-size="11" fill="#444444" font-family="Times New Roman, Times, serif" text-anchor="end" font-weight="normal">dola</text>
<rect x="876.00" y="292.60" width="98.12" height="30.00" fill="#6d597a" stroke="none" stroke-width="1.00" rx="8.00" />
<text x="982.12" y="311.60" font-size="11" fill="#6d597a" font-family="Times New Roman, Times, serif" text-anchor="start" font-weight="bold">79.1</text>
<text x="864.00" y="365.20" font-size="11" fill="#444444" font-family="Times New Roman, Times, serif" text-anchor="end" font-weight="normal">panda</text>
<rect x="876.00" y="346.20" width="224.10" height="30.00" fill="#5f0f40" stroke="none" stroke-width="1.00" rx="8.00" />
<text x="1108.10" y="365.20" font-size="11" fill="#5f0f40" font-family="Times New Roman, Times, serif" text-anchor="start" font-weight="bold">180.7</text>
<text x="590.00" y="496.00" font-size="10" fill="#444444" font-family="Times New Roman, Times, serif" text-anchor="middle" font-weight="normal">Note: panda here refers to the original exp11 panda_switch path. top_p mc2 is blank in the summary because the raw exp11 rows show all choices truncated.</text>
</svg>